<svg xmlns="http://www.w3.org/2000/svg" width="171.99881mm" height="47.94553mm" viewBox="0 0 487.55567 135.90859">
  <defs>
    <style>
      .cls-1 {
        fill: #FFFFFF;
      }
    </style>
  </defs>
  <title>les-thermes_1</title>
  <g id="Calque_2" data-name="Calque 2">
    <g id="Calque_1-2" data-name="Calque 1">
      <g>
        <g>
          <path class="cls-1" d="M59.29932,115.1752c0-3.959,2.77148-6.98243,8.24219-6.98243a24.52826,24.52826,0,0,1,5.86718.71973l.72071,4.9668h-.07227a12.80762,12.80762,0,0,0-7.23437-2.55567c-2.08789,0-3.708,1.11621-3.708,3.24024,0,1.7998.792,2.80761,3.27539,4.499l2.33984,1.584c3.31153,2.23144,5.65137,4.46386,5.65137,7.84668,0,3.38378-2.16016,7.415-8.2793,7.415a21.98062,21.98062,0,0,1-6.40722-1.22363l-.71973-4.89551h.07227c3.02343,2.05176,4.96679,3.20411,7.63085,3.20411a3.56362,3.56362,0,0,0,3.8877-3.708c0-1.94336-.97168-3.34766-3.168-4.78711l-3.56348-2.33985C60.19971,119.74648,59.29932,117.29922,59.29932,115.1752Z"/>
          <path class="cls-1" d="M98.21338,127.70156H87.91846l-2.80762,7.84766H80.50342v-.07227l12.27441-27.82422H94.0376l11.55469,27.82422v.07227h-4.46387Zm-5.21973-14.1455-4.21191,11.73437H97.313Z"/>
          <path class="cls-1" d="M129.78467,124.102l-.64746-15.5498h4.35547l-.43262,15.5498c0,7.30762-3.6709,11.80664-10.331,11.80664-6.62305,0-10.40235-4.499-10.40235-11.80664l-.43164-15.5498h4.35547l-.64844,15.5498c0,5.832,2.95215,8.71094,7.127,8.71094C126.97705,132.81289,129.78467,129.934,129.78467,124.102Z"/>
          <path class="cls-1" d="M146.67041,115.49941l.89942,20.04981H143.395l.93555-26.99707h1.11523l16.84571,20.26562-.71875-20.26562h4.1748l-1.22363,26.99707h-1.11524Z"/>
          <path class="cls-1" d="M190.3003,127.70156H180.00635l-2.80859,7.84766h-4.60743v-.07227l12.27539-27.82422h1.25977l11.55469,27.82422v.07227h-4.46485Zm-5.21973-14.1455-4.21094,11.73437h8.53125Z"/>
          <path class="cls-1" d="M221.22412,116.68691l-2.87988,18.86231h-4.46289l5.72363-26.99707h1.79981l7.84668,19.29394,8.02734-19.29394h1.69141l5.7959,26.99707h-4.46387l-2.98731-19.18555-8.207,19.18555h-.07226Z"/>
          <path class="cls-1" d="M267.51905,127.70156H257.22412l-2.80761,7.84766h-4.60743v-.07227l12.27442-27.82422h1.25976L274.898,135.47695v.07227h-4.46289Zm-5.21973-14.1455-4.21094,11.73437h8.53125Z"/>
          <path class="cls-1" d="M281.16455,115.1752c0-3.959,2.77149-6.98243,8.24317-6.98243a24.5353,24.5353,0,0,1,5.86718.71973l.71973,4.9668h-.07129a12.813,12.813,0,0,0-7.23535-2.55567c-2.08789,0-3.708,1.11621-3.708,3.24024,0,1.7998.792,2.80761,3.27637,4.499l2.33887,1.584c3.3125,2.23144,5.65136,4.46386,5.65136,7.84668,0,3.38378-2.15918,7.415-8.27832,7.415A21.98062,21.98062,0,0,1,281.561,134.685l-.71973-4.89551h.07129c3.02344,2.05176,4.96777,3.20411,7.63086,3.20411a3.56362,3.56362,0,0,0,3.88769-3.708c0-1.94336-.97168-3.34766-3.167-4.78711l-3.56347-2.33985C282.06494,119.74648,281.16455,117.29922,281.16455,115.1752Z"/>
          <path class="cls-1" d="M318.53076,135.90859c-7.88281,0-14.00195-5.14746-14.00195-13.96582,0-8.60254,5.543-13.75,14.21777-13.75a27.07186,27.07186,0,0,1,7.81153,1.25977l.71972,5.11133h-.07226a14.70877,14.70877,0,0,0-9.21485-2.80762c-3.99511,0-9.68261,2.41113-9.68261,9.71875,0,6.7666,3.63574,11.374,10.29492,11.374a14.6606,14.6606,0,0,0,8.35059-3.02343h.07226l-.71973,4.13964A17.14253,17.14253,0,0,1,318.53076,135.90859Z"/>
          <path class="cls-1" d="M353.80908,124.102l-.64746-15.5498h4.35547l-.43164,15.5498c0,7.30762-3.67187,11.80664-10.33105,11.80664-6.623,0-10.40235-4.499-10.40235-11.80664l-.43261-15.5498h4.35546l-.64746,15.5498c0,5.832,2.95118,8.71094,7.127,8.71094C351.00147,132.81289,353.80908,129.934,353.80908,124.102Z"/>
          <path class="cls-1" d="M368.3208,121.3666l-.54-12.81445h4.35547l-.6123,24.72949,11.55469-2.26855h.07226l-.7207,4.53613H367.78076Z"/>
          <path class="cls-1" d="M392.33155,121.3666l-.54-12.81445H396.147l-.54,12.81445.54,14.18262h-4.35546Z"/>
          <path class="cls-1" d="M409.50244,115.49941l.90039,20.04981h-4.17578l.93555-26.99707h1.11621l16.8457,20.26562-.71972-20.26562h4.17578L427.356,135.54922h-1.11524Z"/>
        </g>
        <g>
          <path class="cls-1" d="M0,83.58517V0H13.84648V69.638H27.89439V55.68942h13.8492V83.58517Z"/>
          <path class="cls-1" d="M87.3986,82.09355A7.16064,7.16064,0,0,1,82.48279,84.086H54.5884a6.69345,6.69345,0,0,1-4.91854-2.00335,6.842,6.842,0,0,1-2.10677-5.01244V7.21721a6.74057,6.74057,0,0,1,2.10405-4.91173A6.661,6.661,0,0,1,54.56935.30213H82.39841a7.14128,7.14128,0,0,1,4.90492,1.99246A7.07176,7.07176,0,0,1,89.30668,7.175v21.0215H75.45747V14.24933H61.40957V36.06291h23.18V48.32523h-23.18V70.13881H75.35948V56.19162H89.40467V77.11241A7.1655,7.1655,0,0,1,87.3986,82.09355Z"/>
          <path class="cls-1" d="M95.12345,83.88595V55.99156h13.84648V69.93875h11.84042l-25.6869-55.9902V0H136.867V27.89575h-13.8492V13.94855H111.78169L136.965,69.93875v13.9472Z"/>
          <path class="cls-1" d="M180.81268,83.88595V13.94855h-6.62247V26.18909H160.34373V0h44.45192V13.74849l-9.93507.20006-.098,69.9374Z"/>
          <path class="cls-1" d="M235.70321,83.58517V48.86689H221.7533V83.58517H207.90682V0H221.7533V34.9197h14.0479V0h13.84921V83.58517Z"/>
          <path class="cls-1" d="M295.3027,82.09355a7.16067,7.16067,0,0,1-4.91582,1.99246H262.4925a6.69343,6.69343,0,0,1-4.91854-2.00335,6.842,6.842,0,0,1-2.10678-5.01244V7.21721a6.74054,6.74054,0,0,1,2.10406-4.91173,6.661,6.661,0,0,1,4.9022-2.00335H290.3025a7.14132,7.14132,0,0,1,4.90493,1.99246A7.07175,7.07175,0,0,1,297.21077,7.175v21.0215h-13.8492V14.24933H269.31366V36.06291h23.18V48.32523h-23.18V70.13881h13.94992V56.19162h14.04518V77.11241A7.16549,7.16549,0,0,1,295.3027,82.09355Z"/>
          <path class="cls-1" d="M334.13654,84.086,320.99232,49.16767h-4.01486V84.086H303.03027V.30213H337.95a6.745,6.745,0,0,1,4.91581,2.10406,6.66994,6.66994,0,0,1,2.00607,4.91173V42.19407a6.66473,6.66473,0,0,1-2.00607,4.91037A6.73591,6.73591,0,0,1,337.95,49.20986h-3.81343L348.08373,84.086Zm-3.21188-69.83668h-13.9472V35.22047h13.9472Z"/>
          <path class="cls-1" d="M378.387,84.086V42.14372l-6.9246,7.02395-7.02531-7.02395V84.086H350.59064V7.31792a6.53483,6.53483,0,0,1,2.09316-4.91173A6.264,6.264,0,0,1,357.56423.30213h6.87289l7.07431,27.9951L378.485.30213h6.9736a6.67816,6.67816,0,0,1,4.88315,2.10406,6.711,6.711,0,0,1,1.99246,4.91173V84.086Z"/>
          <path class="cls-1" d="M437.98924,82.09355a7.16067,7.16067,0,0,1-4.91582,1.99246H405.179a6.69343,6.69343,0,0,1-4.91854-2.00335,6.842,6.842,0,0,1-2.10678-5.01244V7.21721a6.74054,6.74054,0,0,1,2.10406-4.91173A6.661,6.661,0,0,1,405.16.30213H432.989A7.14132,7.14132,0,0,1,437.894,2.29459,7.07175,7.07175,0,0,1,439.89731,7.175v21.0215h-13.8492V14.24933H412.0002V36.06291h23.18V48.32523h-23.18V70.13881h13.94992V56.19162H439.9953V77.11241A7.16549,7.16549,0,0,1,437.98924,82.09355Z"/>
          <path class="cls-1" d="M445.71409,83.88595V55.99156h13.84648V69.93875H471.401l-25.6869-55.9902V0h41.74359V27.89575H473.60847V13.94855H462.37233l25.18334,55.9902v13.9472Z"/>
        </g>
      </g>
    </g>
  </g>
</svg>
