<svg xmlns="http://www.w3.org/2000/svg" width="138.60361mm" height="125.73936mm" viewBox="0 0 392.89212 356.42654">
  <defs>
    <style>
      .cls-1 {
        fill: #FFFFFF;
      }
    </style>
  </defs>
  <title>logo</title>
  <g id="Calque_2" data-name="Calque 2">
    <g id="Calque_1-2" data-name="Calque 1">
      <g>
        <path class="cls-1" d="M61.51436,161.39631c-2.23478.10673-6.85546.32681-8.04179.71029-3.04141,1.51835-8.04746,3.91605-10.56182,5.05894a20.65417,20.65417,0,0,1-4.07474,1.40689,58.26181,58.26181,0,0,0,1.7474,26.60621c.24936.91006.45338,1.6553.62906,2.35142.81986,3.27849,3.67236,8.8966,5.98837,13.46014,1.05221,2.07514,2.05909,4.06387,2.862,5.78859a48.13491,48.13491,0,0,1,18.64894-18.67008,143.59546,143.59546,0,0,1-.33247-37.18715C66.38817,161.15994,64.05989,161.27565,61.51436,161.39631Z"/>
        <path class="cls-1" d="M53.76443,107.60974a19.0959,19.0959,0,0,1,3.8811.69317,9.84866,9.84866,0,0,1,2.38213,1.19106c.21535.15255.84063.56106,1.72661,1.14242l.27014.17616c7.84533,5.14867,13.48422,8.99105,15.50364,11.00906a8.76479,8.76479,0,0,1,.71407.82895c1.0881-2.6623,2.23005-5.2965,3.46645-7.87863-.09351-.26246-.19269-.5411-.28147-.79093a42.3884,42.3884,0,0,1-2.1101-6.72369c-.05667-.40143-.459-2.30326-.78585-3.849-.15963-.75374-.33437-1.58021-.51761-2.45722l-.87653-.02077a75.11319,75.11319,0,0,1-10.2199-.9384,31.33958,31.33958,0,0,1-10.44847-3.74356q-2.91863,5.61108-5.44337,11.4485A17.44935,17.44935,0,0,1,53.76443,107.60974Z"/>
        <path class="cls-1" d="M214.67867,0a177.102,177.102,0,0,0-86.33262,22.356,177.161,177.161,0,0,1,59.436,11.01272A146.75764,146.75764,0,0,1,308.04526,64.31179c13.87809,5.49732,24.1027,18.5513,29.10592,24.94216l.49494.63143.19646.77641c.06612.25785.13224.52138.20024.79152,0,0,.55161,2.37728,1.11456,4.87936l.20591-.13589a148.48259,148.48259,0,0,1,24.59953,82.01608c0,82.31644-66.96771,149.28415-149.28415,149.28415a148.705,148.705,0,0,1-114.22575-53.28916L93.793,278.95014c-5.49154,3.77544-11.60553,7.79857-17.49944,11.41769a177.94335,177.94335,0,0,0,138.38513,66.05871c98.26685,0,178.21345-79.94613,178.21345-178.21392C392.89212,79.94613,312.94552,0,214.67867,0Z"/>
        <path class="cls-1" d="M75.58986,66.93193A179.00875,179.00875,0,0,0,64.22613,82.79662a42.72367,42.72367,0,0,0,10.09616-1.38375l.40615-.09894a22.04731,22.04731,0,0,1-.01134-3.598C74.9164,75.71106,75.2536,71.74412,75.58986,66.93193Z"/>
        <path class="cls-1" d="M64.01833,86.61444c-.3542-.00141-.67818-.00944-1.01727-.01417-1.01821-.01464-1.98731-.03849-2.85439-.0647-.48549-.0144-.94171-.02762-1.37336-.03778-.12279-.00283-.22763-.00283-.3457-.00519-.3032-.00567-.60262-.0111-.87842-.01181-.06612,0-.12279.0026-.187.00283-.41371.00166-.78774.01417-1.13533.03566-.1039.00638-.20686.013-.30509.02149a6.86817,6.86817,0,0,0-1.01443.15018c-.02456.0059-.04251.01558-.06612.0222a2.76073,2.76073,0,0,0-.68007.2758c-.05572.03164-.10862.0647-.15868.10012a1.57787,1.57787,0,0,0-.4751.49116l-.00095.001a1.04224,1.04224,0,0,0-.13884.49163,1.35889,1.35889,0,0,0,.034.34641,1.94459,1.94459,0,0,0,.14546.41559,4.0473,4.0473,0,0,0,.52705.77712c.07556.09115.1823.19363.27014.28927.18324.20118.37781.40568.614.6228.13223.12232.29.25007.43826.376.24275.205.49778.41205.77925.62351.18229.13684.3797.27462.578.41276.30037.20922.62057.4182.95682.62717.22291.139.4496.27711.68762.41442.3646.21028.75375.415,1.15045.61808.25125.12834.49683.25786.76035.38207.45338.21429.937.41441,1.42531.61206.2418.09776.47038.202.71974.29469a26.81648,26.81648,0,0,0,5.05138,1.34644c1.87019.30367,3.64781.511,5.28091.64984,1.63311.13932,3.12264.21016,4.41949.24086L75.22338,85.11428c-1.83807.448-3.63364.81868-5.47171,1.07937a41.64491,41.64491,0,0,1-5.7324.42079Z"/>
        <path class="cls-1" d="M107.03634,100.068a13.03137,13.03137,0,0,1,.82553-1.25245l.0954-.12893c1.84279-2.50279,2.50585-3.40317,2.862-5.4102.05006-.28666.09445-.596.13506-.93568.03873-.31736.06329-.60474.07651-.86425.01417-.25916.01984-.49057.01606-.69589-.87748.33106-1.75117.68833-2.53042,1.0371q-.38961.17427-.74429.34429c-.47038.226-.88409.44251-1.21562.63945a3.48015,3.48015,0,0,0-.71785.52115,3.63409,3.63409,0,0,0-1.18917,2.98167,4.64976,4.64976,0,0,0,1.05032,2.23454c.3032.38938.64984.77877.95965,1.11691C106.79171,99.80066,106.93717,99.96312,107.03634,100.068Z"/>
        <path class="cls-1" d="M176.032,234.39961a.67563.67563,0,0,0,.31548.13932c.04439.01016.10579.01323.15679.02078a2.83648,2.83648,0,0,0,.37026.03117c.06517.00142.13979-.00236.21063-.004q.31029-.00744.681-.0503c.07368-.0085.14168-.01417.21819-.02456.32114-.04463.66307-.10579,1.02577-.18607.07084-.01582.1464-.03684.21819-.05408q.45762-.10837.9332-.2529c.10673-.03211.21252-.06422.31925-.09917.392-.127.784-.26542,1.17123-.42717l.00567-.00212a5.47167,5.47167,0,0,0,.51761-.311,5.11654,5.11654,0,0,0,1.19861-.96981,3.839,3.839,0,0,0,.88315-1.71386,2.79424,2.79424,0,0,0,.0595-.4921,1.67713,1.67713,0,0,0-.1039-.66508l-.00189-.00413c-.00755-.019-.01322-.03943-.02172-.05691a.77806.77806,0,0,0-.11146-.18442,2.42964,2.42964,0,0,0-.91053-.5313,6.191,6.191,0,0,0-1.28363-.29434c-.18418-.02551-.3542-.06081-.55822-.07214-.13034-.00614-.2588-.00992-.38915-.00992a4.913,4.913,0,0,0-3.27754,1.05788,9.92583,9.92583,0,0,0-1.3847,1.508,3.05375,3.05375,0,0,0-.67062,2.41589A4.64408,4.64408,0,0,0,176.032,234.39961Z"/>
        <path class="cls-1" d="M83.80922,281.06638c4.60084-3.022,8.94288-5.99758,12.50379-8.5169a131.39519,131.39519,0,0,1,8.30626-19.70116q1.0626-2.06642,2.15544-4.05325,1.09094-1.98459,2.1951-3.87567c.50627-.86756,1.0116-1.71221,1.51693-2.54553.59411-.98137,1.18634-1.94433,1.77384-2.87375,1.08622-1.7193,2.15543-3.346,3.18781-4.86437,1.37714-2.02462,2.6891-3.85726,3.8915-5.46085,1.20239-1.60382,2.29428-2.9786,3.23126-4.08772.46849-.55468.89826-1.04253,1.28363-1.45978a14.77281,14.77281,0,0,1,1.413-1.3821h.00094l.80664.996,1.61515,1.992a14.2773,14.2773,0,0,0-1.396,1.37666c-.31737.34783-.6744.75917-1.05127,1.20441-.12468.14734-.26069.31464-.391.47226-.27486.33154-.55917.68149-.85859,1.05694q-.23943.3-.48832.61879c-.30981.39683-.63379.81951-.96437,1.25683-.16152.21311-.31926.41807-.48455.64039-.48455.64937-.98421,1.33062-1.50276,2.05555q-.72966,1.021-1.49709,2.13265c-1.22035,1.77243-2.4983,3.71132-3.80932,5.79875q-.73816,1.1763-1.48293,2.41-1.14336,1.88967-2.28956,3.90141c-.92942,1.6324-1.856,3.30045-2.7656,5.03462-1.908,3.642-3.7432,7.48594-5.38859,11.43753q-.82315,1.97556-1.57832,3.98358c.34-.253.664-.49682.95776-.72221a72.79016,72.79016,0,0,0,12.16281-11.947,94.73466,94.73466,0,0,0,10.9028-16.868c.00944-.01818.01794-.03306.02644-.05124.34382-.67464.66874-1.30181.98421-1.9049.09257-.1771.18324-.34782.27392-.519q.36837-.69565.71218-1.32684c.07651-.14121.15679-.28926.23141-.42575.29-.52563.56956-1.022.83686-1.4808.04439-.0758.085-.14262.1294-.21677q.33436-.57062.6489-1.07181c.0699-.11311.14074-.22386.20969-.332q.29894-.46683.57994-.87417c.0444-.06375.09068-.13507.13413-.1967.2248-.3176.4411-.605.65173-.86779.051-.06376.10012-.11949.15018-.18041q.24369-.29362.47794-.54145c.05856-.06116.11617-.1235.17379-.18065a6.8777,6.8777,0,0,1,.54689-.49871c.01133-.009.02267-.02126.034-.03023a4.79005,4.79005,0,0,1,.56011-.38112c.0529-.0307.10485-.05667.1568-.08406a3.5383,3.5383,0,0,1,.42409-.18891c.04817-.018.09729-.03849.14546-.05384a3.18059,3.18059,0,0,1,.54783-.12373c.02739-.00378.05573-.00284.08312-.00567a3.41736,3.41736,0,0,1,.34854-.02314c.034,0,.06989.0085.1039.00944.1294.00355.26258.018.39481.03448.09351.01133.18608.01936.28147.03684.14263.026.29092.06328.43921.10153.08974.02314.17852.04156.27109.06872.1719.05053.35231.1124.53272.17545.07556.02644.14829.04817.22669.0765.24463.08926.49966.1882.76413.29376.01889.00708.03494.01275.05383.0203a15.59592,15.59592,0,0,1,1.9193.97288c.5195.30083,1.05789.62859,1.63122,1.008,1.788,1.18469,3.80082,2.71437,5.8108,4.34511,1.50653,1.22271,3.01307,2.50255,4.42138,3.73612.93981.82246,1.83523,1.62437,2.65981,2.37551.41182.37546.80664.73816,1.17973,1.08433,1.11928,1.03852,2.04492,1.92828,2.68343,2.56584.52233.52233,1.17217,1.1861,1.91836,1.94881l.1379.14027.05573.05643c1.18445,1.21043,2.56819,2.6244,4.05017,4.10544.74147.74051,1.50654,1.49756,2.28295,2.25414,3.88488,3.78287,8.06068,7.55393,10.933,9.16862.63284.35633,1.278.77051,1.924,1.20582.15962.1078.31642.21512.476.32681a50.12445,50.12445,0,0,1,8.05124,7.13539,19.19856,19.19856,0,0,1,1.89569,2.41046c.00944.01311.11334.16459.25974.37947l.06329.09351c.06612.09776.14262.21252.22763.33921.05006.07426.09635.14357.15207.22728.08879.13365.18324.27674.2862.4333.06612.10012.13223.20119.204.31016.10956.16742.22008.33732.341.52446.085.13164.17379.27037.26352.41123.12185.19.2418.37722.37215.58266.10012.15844.20591.32763.31075.49458.13224.21146.26164.41619.39954.64028.1294.2091.26542.43283.3986.652.3882.63638.7868,1.29838,1.19767,2.00348.65834,1.13108,1.33274,2.3356,1.97692,3.56445.28147.53756.55822,1.07984.82552,1.62259q.37688.76455.72257,1.5265c.07557.16458.14263.32645.21536.49033.15207.34228.30131.68314.44015,1.02069.08029.19316.153.3823.22764.57345.1209.30532.23708.60793.34475.90664.07084.196.136.388.20024.58042.09729.28832.18608.57121.2692.85044.05478.18642.10768.37084.15585.55267.07367.27805.13412.54653.18985.81254.035.16683.07367.33531.10106.49694.04818.2797.07651.54453.10107.807.01228.12964.03306.26589.03873.3908a6.16541,6.16541,0,0,1-.0274,1.06686c-.11051.87724-.222,1.9696-.32681,3.22087a155.48663,155.48663,0,0,0-.357,20.71182c.64606,1.13427,1.33746,2.3395,2.04587,3.57141,4.34109.38986,8.719.59636,13.12718.59636a145.5366,145.5366,0,0,0,129.50742-79.41411c-1.16933-12.3529-2.46052-25.62-2.60314-27.07021a69.47765,69.47765,0,0,0,.33248-13.1456c-7.46185-6.57021-22.29109-21.7298-34.20737-35.73257-1.55188-1.82413-3.06125-3.631-4.49222-5.39448l1.22789-.996,1.76062-1.42861c1.20429,1.4841,2.46336,2.99206,3.74132,4.504q.48738.57735.98043,1.15565,1.89852,2.22633,3.85465,4.45727,1.5174,1.72318,3.05464,3.43268c1.6161,1.79722,3.24165,3.57508,4.85586,5.31444,1.61327,1.73913,3.21521,3.44025,4.78314,5.0835q1.03,1.07855,2.03831,2.12238c1.06733,1.1044,2.10538,2.16594,3.12548,3.20045.16435.16694.33153.33779.49494.50273q1.43238,1.4501,2.78072,2.78485.27768.27575.55161.5463c.88786.876,1.74644,1.716,2.56158,2.50326.13318.12845.25975.24888.391.37474.84819.81585,1.66711,1.59473,2.4199,2.297.60923.40863,1.278.85138,1.96181,1.30145q.28194.18507.57144.3738,1.04136.68077,2.15544,1.39013.92517.58726,1.88246,1.17843a78.97918,78.97918,0,0,0,8.67558,4.72776,145.32319,145.32319,0,0,0-15.95891-101.20707c.0699.44251.14546.87995.21252,1.32447q.16295,1.09342.31076,2.1892c.38631,2.87423.67817,5.73665.82741,8.44582.00378.06919.0085.13861.01228.20733.07084,1.34526.10673,2.6525.09823,3.90117q-.00708,1.01516-.05384,1.97385c-.05572,1.16674-.154,2.27138-.306,3.29053q-.11759.78916-.27769,1.50985c-1.68506,7.58274-3.30588,11.41851-5.44148,14.1912q-.26636.34677-.545.67275a21.81639,21.81639,0,0,1-1.78329,1.84539l-.00094-.00047v.00023l-1.30913-1.41019-1.30818-1.41v-.00024a14.40046,14.40046,0,0,0,3.22276-4.11251,37.21968,37.21968,0,0,0,2.89406-8.41135c.171-.69376.34287-1.41539.51666-2.19912a24.279,24.279,0,0,0,.48644-3.76563c.07084-1.19.08784-2.46831.05762-3.81074s-.10674-2.74884-.222-4.19528q-.08643-1.08474-.20024-2.19664c-.09351-.92045-.204-1.85377-.323-2.78993-.03117-.25349-.06518-.50745-.09918-.76141q-.14593-1.10529-.30981-2.21352c-.03211-.219-.06328-.43815-.09634-.65705-.14263-.934-.29281-1.8657-.4496-2.789-.02456-.143-.051-.28336-.07556-.426q-.204-1.185-.42127-2.34517-.06942-.37067-.13979-.73815c-.14546-.76413-.29375-1.51752-.44393-2.2552-.02645-.12669-.051-.25763-.07745-.38349q-.26494-1.2884-.53367-2.50337c-.0425-.19352-.085-.37924-.12751-.56956q-.20969-.93916-.41749-1.82272c-.04722-.19989-.0935-.40155-.14073-.5966-.17285-.7241-.34476-1.42637-.51005-2.07632-.86331-1.10275-1.83052-2.32947-2.89218-3.62892-.02361-.02975-.04628-.05856-.07084-.08808-.5091-.62221-1.04277-1.26261-1.59532-1.91339l-.12373-.14641q-.82034-.962-1.704-1.95283c-.05384-.06068-.10673-.1209-.16152-.18158l-.00566-.0065.00189.00272q-.87417-.9753-1.80974-1.963c-.06612-.06966-.13034-.13908-.19646-.2085q-.93368-.97866-1.925-1.954c-.07556-.07414-.15018-.14876-.22669-.22338q-.99034-.96768-2.03831-1.91647c-.08217-.07461-.16435-.14947-.24747-.22385q-1.04985-.94218-2.1526-1.85082c-.08879-.0725-.17663-.145-.26541-.21725q-1.10795-.90108-2.26784-1.75495c-.09351-.06848-.188-.13625-.28147-.204q-1.166-.84618-2.384-1.63c-.0954-.06093-.1908-.12067-.2862-.18065q-1.22836-.7771-2.5068-1.47678c-.09257-.051-.187-.09965-.28147-.14971-.86237-.46188-1.73984-.89542-2.63526-1.29283-.08785-.039-.17569-.07462-.26447-.11264-.9077-.39482-1.83052-.75705-2.77128-1.07559-.07839-.02669-.15868-.04959-.23708-.0758-.95587-.316-1.92685-.59412-2.91484-.82128-.06328-.01464-.12846-.0255-.19268-.03967a30.16332,30.16332,0,0,0-3.07447-.528c-.03873-.00473-.0784-.00614-.11713-.01063a29.04209,29.04209,0,0,0-3.25865-.18867q-.87276,0-1.75967.05289c-1.84846.10437-3.5543.222-5.13168.34995-1.57643.128-3.02441.2666-4.35337.41277-1.993.21913-3.72053.45574-5.22046.70037-1.62271.26494-2.96773.5391-4.10685.81159-.46282.111-.88881.22126-1.28362.33083-.579.16081-1.09.31854-1.53866.472-.47888.16364-.89164.32185-1.2449.47133-.07178.03022-.15112.06163-.21724.09138-.85764.55314-1.76912,1.1789-2.70327,1.83866-.2928.20685-.59694.43047-.89542.6463-.66117.47794-1.33274.971-2.01753,1.48729q-.52.39246-1.04655.79648-1.03284.79288-2.0827,1.62791c-.32114.25526-.6404.50533-.96343.765-1.00782.81124-2.01848,1.63736-3.02158,2.477-1.18067.98787-2.34056,1.98754-3.47873,2.98132q-.42788.37332-.84914.74464c-1.1155.98362-2.2121,1.96275-3.23976,2.90741-.11523.10555-.23047.21087-.34381.31547-2.01942,1.865-3.82349,3.61239-5.2573,5.096-.48832.50533-.93415.98055-1.3318,1.41988-.357.395-.66117.7502-.937,1.08338-.08028.09717-.14829.18525-.221.27675-.18607.23354-.3457.447-.48077.64111-.05384.07662-.11051.15655-.15585.22668a2.96516,2.96516,0,0,0-.323.61041c-.62245,1.96983-1.73606,6.76407,1.36769,8.70273v.00024l-.64134,1.02577-1.397,2.23761H240.388c-2.84306-1.77715-4.16919-4.91231-3.85844-8.88857a19.15552,19.15552,0,0,1,.85953-4.23767c1.28268-4.05773,15.30717-16.5091,25.63664-24.23967q-.78066-.04887-1.62083-.09421c-.55917-.03-1.13533-.05786-1.72378-.08289-.60167-.02526-1.21562-.04722-1.83618-.0647-.59506-.01653-1.19673-.02951-1.80029-.03683-.48549-.09422-1.0201-.217-1.58021-.35539-.19269-.04746-.39954-.1039-.60073-.15655-.37215-.09765-.75374-.20143-1.15328-.31631-.28053-.0804-.56578-.16435-.85953-.25313-.32492-.09847-.66117-.20485-1.00026-.31335-.37215-.11831-.73958-.23413-1.12778-.36412-.08123-.02739-.16907-.059-.25125-.08678-1.16178-.39269-2.39534-.8371-3.68653-1.3279-.02456-.00957-.04911-.01807-.07367-.02775-.6489-.24688-1.31291-.50828-1.98825-.77853-.09162-.03637-.18135-.07273-.273-.10957-2.27162-.91431-4.667-1.94079-7.1596-3.09619q-1.22412-.56744-2.47185-1.17052c-2.3774-1.14974-4.8077-2.39795-7.23894-3.725-1.81823-.99224-3.63836-2.02721-5.4377-3.10659q-1.95519-1.36155-4.09363-2.71271c-.46376-.293-.96909-.58112-1.44514-.87275-.98421-.60356-1.95991-1.20854-2.99513-1.80477-.62528-.36011-1.294-.71195-1.9363-1.069-.93509-.51926-1.85507-1.04183-2.82605-1.5533-.72163-.38017-1.48482-.74854-2.22534-1.124-.94264-.47746-1.87018-.95894-2.84305-1.42719-.7868-.37853-1.61044-.74288-2.41613-1.11479-.97193-.44889-1.93063-.90345-2.929-1.34172-.8482-.37238-1.73039-.728-2.59653-1.09188-.99744-.41914-1.98353-.84442-3.00458-1.25152-.90014-.35916-1.83146-.69919-2.7486-1.04772-1.02483-.38986-2.03926-.78633-3.08486-1.16226-.94359-.33932-1.91269-.65787-2.8714-.98515-1.055-.36034-2.10065-.72753-3.1727-1.07229-.98043-.31524-1.98258-.60757-2.97623-.90888-1.08244-.3287-2.15827-.664-3.25583-.9757-1.00876-.2862-2.03642-.54784-3.05746-.81892-1.10983-.29469-2.21494-.59647-3.338-.87228-1.03427-.25432-2.08459-.48242-3.12925-.72-1.13345-.25739-2.26217-.52139-3.406-.75823-1.05789-.21913-2.1271-.41064-3.19254-.61112-1.15045-.21677-2.299-.43944-3.4589-.63378-1.07583-.18041-2.16015-.33224-3.24259-.49258-1.16651-.17285-2.33112-.35089-3.50424-.49966-1.08905-.13837-2.18377-.247-3.2766-.36364-1.17973-.12563-2.35756-.25574-3.54107-.35562-1.09755-.09257-2.19888-.15538-3.29927-.2248-1.18823-.07533-2.37551-.15373-3.56657-.20119-1.10133-.04416-2.20455-.05762-3.30683-.077-1.5292-.02739-3.05747-.06777-4.58667-.04628.39765.30981.818.61371,1.23545.91856.59884.43732,1.23451.85811,1.89852,1.2671.22575.13885.42882.28808.664.42221a16.97613,16.97613,0,0,1,1.52638.97807,15.29439,15.29439,0,0,1,2.93656,2.74577,14.33024,14.33024,0,0,1,1.26757,1.822,15.839,15.839,0,0,1,2.01564,6.08069,22.31036,22.31036,0,0,1,.0614,4.82966c-.06045.68007-.13129,1.32944-.20024,1.97857-.04156.38939-.08123.77452-.12468,1.1521-.07556.67157-.153,1.33841-.22858,1.97031-.11429.95965-.22858,1.92555-.32209,2.85462-.09917.97666-.17474,1.91187-.20024,2.74932-.05006,1.63405.08784,2.90091.60639,3.39939l-2.66737,2.77269h-.00094a6.67035,6.67035,0,0,1-1.76818-4.69624c-.03022-.554-.03684-1.133-.01511-1.75023.0595-1.69545.29-3.62773.54594-5.78435.18513-1.54526.38348-3.21473.54217-4.98952a18.14623,18.14623,0,0,0-.0699-4.14982,13.593,13.593,0,0,0-.38632-1.839,11.60223,11.60223,0,0,0-.8123-2.075l-.0085-.01334a10.64791,10.64791,0,0,0-1.04655-1.625c-.119-.15526-.25124-.30119-.3797-.45031a11.06594,11.06594,0,0,0-1.01821-1.04029c-.14924-.13294-.29281-.26907-.4496-.39588a12.76361,12.76361,0,0,0-1.70773-1.18055,41.56656,41.56656,0,0,1-5.33663-3.76445,24.86514,24.86514,0,0,0-4.22586-2.91343,8.34279,8.34279,0,0,0-1.08244.07273c-.22291.022-.45338.02408-.67062.0621a9.4223,9.4223,0,0,0-.94265.23708c-.19363.05455-.39482.09115-.58373.15609-.33531.11547-.65267.26092-.971.40426-.14829.06659-.306.11948-.45055.19127-.44393.21984-.86991.46093-1.278.71407-.00944.00614-.02077.01133-.03022.01747-.153.333-.3287.73166-.50911,1.15068-.05006.11583-.10106.23968-.153.36034-.13979.33189-.28336.68019-.42788,1.03829-.05478.13672-.10956.27167-.16435.41075-.19363.49034-.38537.99059-.56294,1.48552-.19458.54182-.37309,1.07512-.52422,1.57561a12.73637,12.73637,0,0,0-.42315,1.76841,4.99643,4.99643,0,0,0,.02172,1.4612,7.31984,7.31984,0,0,0,.1568.75256c.08123.316.18324.63449.30036.95469.15868.43744.35042.87819.55161,1.31881.05573.12244.11051.24476.16813.36707.19079.40391.38631.80794.58467,1.20866l.16529.3372.19268.39293a16.54643,16.54643,0,0,0,1.0305,1.77242c.50343.77263,1.08905,1.5684,1.71905,2.38094.57806.74642,1.17973,1.503,1.80879,2.27988l.33059.41158.33248.41158c.56955.70841,1.09377,1.34479,1.566,1.90514,1.18067,1.40122,2.03265,2.32828,2.44541,2.72357.08312.07887.14829.13672.19552.17285l-1.13061,1.5566L118.68155,57.05a5.33627,5.33627,0,0,1-.48739-.41135c-.18324-.17072-.38537-.37167-.59978-.59435-1.28646-1.33676-3.02157-3.45819-3.85654-4.49718l-.6574-.81513c-1.16367-1.43877-2.26878-2.83031-3.235-4.21642a22.30961,22.30961,0,0,1-1.79273-2.95735l-.34665-.70651c-.23236-.46991-.46755-.95611-.698-1.4501a14.51928,14.51928,0,0,1-1.48576-4.99306,8.52122,8.52122,0,0,1,.04345-1.86995,20.76859,20.76859,0,0,1,.937-3.53446c.43449-1.27017.94831-2.558,1.40736-3.64048a14.20815,14.20815,0,0,0-1.82579-1.49851c-.05951-.04156-.11712-.08879-.17757-.12893A12.93245,12.93245,0,0,0,103.993,24.683c-.09634-.04369-.19174-.09115-.29-.13247a13.25542,13.25542,0,0,0-2.03926-.66449c-.11806-.02857-.23708-.0569-.35609-.08264a14.86585,14.86585,0,0,0-2.20077-.29918c-.12373-.0078-.24841-.01134-.374-.01606-.55916-.02173-1.14383.01228-1.72944.04628-.37121.02172-.73863.03306-1.12023.07745-.55633.06447-1.13439.17569-1.71339.28809-.3712.07225-.733.12515-1.11361.21677-.65267.158-1.33179.37215-2.01092.58844-.33342.10627-.65456.1849-.9946.30509-1.02671.36317-2.07987.78326-3.1642,1.27489l-.01133.00449q-1.60808.72858-3.32005,1.447c-3.42678,1.43758-7.17565,2.84849-11.27967,4.24333-1.22034.41477-2.48319.82777-3.76776,1.24006-.46471.14936-.94359.29848-1.4168.44748q-1.25245.39333-2.54081.78585c-.57994.17639-1.16272.353-1.755.52906-.83025.24653-1.67939.4927-2.53325.73875-.58467.16848-1.15706.33732-1.75306.50568l-.00472.00142c-1.50465.42492-3.03764.84949-4.6169,1.27394l-.00567.00142c-1.08527.29139-2.09309.51052-3.06219.698-.17474.034-.35042.07084-.52233.10177-.90676.16412-1.76156.28927-2.56725.38183-.15963.01842-.30887.03283-.46471.04865-.801.08217-1.56605.14451-2.265.17663l-.02455.00094c-.72446.03282-1.38092.04156-1.99864.043-.04912,0-.10863.0033-.1568.0033-.07273,0-.13223-.00141-.204-.00165-.42315-.00142-.82458-.00543-1.19673-.01063l-.05384-.00047c-.07934-.00094-.14545-.00094-.22291-.00189-.289-.0033-.57239-.00661-.83213-.00661-.44488,0-.835.01488-1.20523.042-.09729.00709-.1908.01653-.28337.02645a5.2242,5.2242,0,0,0-1.01726.18938,3.58984,3.58984,0,0,0-.53272.21524,2.60739,2.60739,0,0,0-.50911.33731c-.02928.02444-.05572.04936-.08312.07427a2.28405,2.28405,0,0,0-.32114.35538l-.00472.00555a2.10074,2.10074,0,0,0-.38065,1.07606,3.36809,3.36809,0,0,0,1.36958,2.59866,10.05461,10.05461,0,0,0,1.022.78987,20.76656,20.76656,0,0,0,3.34649,1.82013c.65174.28926,1.32425.55137,2.01187.792.2163.076.443.137.66307.20827.476.154.95114.30839,1.43947.44181.28053.07674.56861.13908.85292.20921.43921.10839.87653.2189,1.32329.31241.31265.06517.631.11878.94643.1771.42788.07934.85481.1601,1.28646.22716.3287.051.66118.0928.99177.1372.42315.0569.8463.11405,1.27229.16057.341.03707.682.0673,1.02293.09823.41749.03778.834.07533,1.25057.10413.3457.02433.6914.04345,1.0371.06187.41088.022.81986.04251,1.2279.05715q.52138.01842,1.039.02833c.3986.0085.79625.01511,1.19106.01748q.55114.00318,1.09472-.00024c.3032-.00213.60545-.00543.90487-.01063q.571-.01026,1.12967-.02786c.289-.00874.579-.01747.86425-.02857.37592-.01488.74429-.03235,1.11077-.05077.26636-.0137.53461-.02645.7953-.04156.375-.02172.74052-.046,1.10322-.07084.23614-.01606.47605-.03117.70652-.04817.37781-.02834.74146-.05786,1.10227-.08784.19647-.0163.40049-.03212.59128-.04888.39293-.03424.767-.06943,1.13439-.10461.1398-.01323.28809-.02621.42316-.03967q.67723-.06624,1.28929-.13082c.03589-.00378.07745-.00779.1124-.01157.45243-.04746.87653-.09327,1.26757-.13554l.73957-.08c.2248-.02385.43071-.04628.64512-.06943,1.36108-.14616,2.538-.27958,3.54485-.39883.10579-.01251.221-.02574.323-.038.76224-.31666,1.47159-.64111,2.13749-.962.665-.32067,1.28741-.638,1.874-.93934.44677-.22952.88126-.44842,1.312-.65952.119-.0588.24085-.11689.35892-.17309.45716-.21771.90959-.42221,1.3573-.59458.03117-.01181.0614-.01984.09257-.03165a10.49433,10.49433,0,0,1,1.22128-.37427c.10485-.02574.21158-.05124.31737-.07273a6.86575,6.86575,0,0,1,1.31668-.14947c.01511,0,.03023-.0052.04534-.0052.188,0,.38065.02645.57144.0444.11335.01086.2248.00944.33909.02644a6.30109,6.30109,0,0,1,.96721.22811l.02361.00567L88.89933,48.078h-.00094v.00024a2.34312,2.34312,0,0,0-.65362-.10154c-.04817-.00142-.09634-.004-.14546-.00283a3.34766,3.34766,0,0,0-.70368.09516c-.04345.01039-.09068.02668-.13507.03849a6.93236,6.93236,0,0,0-.75.25384c-.05006.0196-.09634.03542-.14735.05667-.3032.12492-.6319.27628-.98987.44937-.08974.04345-.1823.08878-.27581.13507-.35326.17474-.72352.36176-1.142.57617l-.03589.01841c-.70368.36129-1.50465.7587-2.35567,1.16273-.426.20189-.84064.40332-1.30819.60686-.04911,1.32991-.10579,2.67777-.16907,4.02657s-.13318,2.699-.20685,4.03341q-.07935,1.42442-.1653,2.8133c-.02928.47735-.05856.95434-.08784,1.42342-.02173.335-.04345.66106-.06423.99106-.02267.33991-.04439.68018-.06706,1.01431-.02173.32244-.04345.63662-.06517.953-.02267.33142-.04534.66059-.068.98456-.02173.30627-.04345.606-.06517.90511-.02362.32669-.04629.64736-.0699.96472q-.02976.40521-.05951.80015c-.02644.34747-.052.6836-.07745,1.0175-.017.21972-.034.44086-.051.65433-.03023.38785-.05951.75811-.08879,1.12388-.01133.14038-.02361.28749-.034.42433-.04156.50509-.08218.99106-.1209,1.44621q-.05526.63791-.10485,1.20452c-.06706.75421-.12845,1.40807-.18229,1.9448-.035.34665-.04629.76059-.04723,1.20854,0,.74642.04156,1.618.137,2.65367l2.589,15.52985c.13223.65055.2588,1.25836.38726,1.87231q.13884.6744.273,1.3122c.14262.68054.2843,1.35282.41087,1.9526.12373.58372.238,1.12541.34476,1.63641.188.89825.33531,1.62082.41937,2.08365.02645.145.05667.30508.069.39009a45.91263,45.91263,0,0,0,1.93725,6.00773c1.77856,4.97441,4.21453,11.78736,4.42988,15.37943.02928.4868.07273,1.049.12279,1.63937.01322.15171.02645.30579.04061.46341.052.59293.11052,1.21338.17852,1.87845l.01134.11063c.068.65834.14451,1.35388.22385,2.06251.0255.22162.051.44441.07651.66968q.10909.94111.22574,1.91434.06234.50634.12563,1.0168c.052.42.1039.83957.15774,1.26143.03778.294.07556.58679.11428.88031q.0751.57982.15113,1.15576c.03967.29823.0784.59494.119.8901.051.38006.102.75493.153,1.12766.03778.27286.07462.548.1124.81585.06611.477.13223.94.19646,1.3965.32681,2.28188.6319,4.28135.86425,5.63546.05479.31808.10485.60108.15113.84442.02928.1575.068.34983.10862.55444.02267.10921.04817.23319.07273.3535.02645.127.05289.25478.08217.395.0529.24759.1124.52634.1738.81242.09634.45019.20024.92931.31642,1.46746.17474.80521.36931,1.70748.57522,2.67327.20591.966.42316,1.99534.6404,3.05511.22858.46707.42788.89873.614,1.31716.05762.12845.11145.256.16529.38112.12846.30048.25031.59718.36271.88538.04628.11807.09445.24062.1379.35763.14451.38832.28147.77464.4052,1.16639.13885.43708.26731.88314.39293,1.35364.136.50816.2692,1.03592.40615,1.62224.21347.91951.43732,1.95944.70463,3.19679.48832,2.26547,1.15706,5.36875,2.18282,9.68953.16624.69943.35137,1.35388.545,1.98826q.07225.23537.14546.4653c.19741.61194.40143,1.20535.61962,1.75932q.24653.62658.50816,1.20664c.24558.54618.49683,1.07323.75846,1.559.1993.37026.40521.71065.61112,1.04749.16435.26518.33059.5234.49871.77205.10107.151.20214.30567.30509.44936v-.00035a18.80681,18.80681,0,0,0,1.21845,1.53322c.01984.023.04062.04474.0614.06753a16.03787,16.03787,0,0,0,2.27161,2.11128c.06045.04581.12.09008.18041.13365.33059.2431.65173.46341.94642.64323q.255.15478.4855.28147a15.45274,15.45274,0,0,0-1.31669-4.28253,1.312,1.312,0,0,0-.323-.07131,4.48117,4.48117,0,0,1-3.95383-2.19558,3.21928,3.21928,0,0,1,.13412-3.30872,3.82433,3.82433,0,0,0,.65362-3.0858h.00094v-.00024l3.27-.36624.55256-.06187a10.92694,10.92694,0,0,1,.06423,1.70725,7.39048,7.39048,0,0,1-.24181,1.56014,7.17941,7.17941,0,0,1-.77074,1.8572,1.55859,1.55859,0,0,0,.36648.04628,5.13245,5.13245,0,0,1,1.01349.13035,5.35552,5.35552,0,0,1,.56106.14451l.45715-.45243.001-.00142c.12279.12374.22952.29.3457.42953a9.17055,9.17055,0,0,1,.57522.71431,7.06417,7.06417,0,0,1,.68951.54452c.3542.30415.664.59884.87559.82128.03778.03873.06423.0647.09634.09752.03023.03235.06706.07132.09257.0954v.00024l-.1209.154-.42882.54783a20.73223,20.73223,0,0,1,1.27512,4.77558c.08784.57593.1568,1.16792.20874,1.77148l.103.034v.03542c.57428.19741,1.106.36153,1.6161.50439.15113.04227.29659.07957.443.11688.4496.115.87842.20615,1.28646.27061.08218.013.17.034.2503.04487a8.17019,8.17019,0,0,0,1.33652.072c.09635-.0026.18986-.01275.28431-.0196a5.94455,5.94455,0,0,0,1.07961-.17285c.05761-.01488.11712-.0222.17474-.039a6.09065,6.09065,0,0,0,1.14289-.47983c.08973-.04817.17946-.102.26919-.15514a8.56952,8.56952,0,0,0,1.06166-.74122c.03211-.02645.06423-.04629.09729-.07344a14.70232,14.70232,0,0,0,1.18067-1.13132c.09823-.10248.19646-.20945.29564-.31831.408-.44724.82458-.92659,1.26757-1.48174l.00378-.00543c.86141-1.07867,1.67749-2.06217,2.44729-2.963,1.15612-1.35116,2.21022-2.51577,3.16231-3.534.9521-1.018,1.80124-1.88955,2.54742-2.6551.46094-.47321.86992-.89566,1.24207-1.28835.51572-.544.95115-1.02317,1.26473-1.42814a8.918,8.918,0,0,1,.75375-.83851c.12656-.12728.25313-.25621.37781-.37758.12373-.12019.24652-.24239.36837-.36825.02267-.02279.04439-.04522.06706-.06848q.18135-.19145.35137-.4084c.02078-.02668.04156-.05419.06234-.0817a4.25238,4.25238,0,0,0,.31831-.49069c.01417-.02633.02739-.05537.04156-.08253a4.9851,4.9851,0,0,0,.47132-1.433c.00756-.04167.01606-.08075.02362-.12373a8.67425,8.67425,0,0,0,.09351-.95233c.00283-.06447.00566-.13047.00755-.19729.01039-.36.00661-.751-.01889-1.184-.00378-.0673-.01039-.141-.01511-.21016-.03212-.4627-.07934-.95729-.15585-1.511-.04912-.35456-.10768-.72777-.17663-1.12329q-.102-.58427-.23519-1.2318c-.44582-2.16913-.74052-4.07284-.94265-5.79-.07556-.6417-.13223-1.24561-.1804-1.83158-.01417-.169-.02551-.33071-.03684-.49529q-.04675-.64128-.07367-1.23959c-.00756-.14758-.01512-.29729-.01984-.4411-.01889-.513-.03023-1.01006-.03023-1.47678l.00095-.026c0-.58785.01606-1.13262.03873-1.65341.00755-.17864.01889-.34275.02928-.51395.01983-.34452.04156-.67817.069-.995.01417-.17214.02928-.3385.04534-.50285.02928-.305.06045-.59494.0935-.87523.01606-.13578.03023-.27309.04723-.40343.04723-.37357.09446-.73025.13979-1.064l.0869-.65125h.00094l3.81405.50107h.00094l-.0255.18395-.06517.4862a36.96039,36.96039,0,0,0-.1738,10.08436q.07085.653.1653,1.35222c.08123.60143.1804,1.24089.29,1.899.02928.17214.05856.34688.08973.52328.1209.68939.25125,1.39874.4071,2.15531.13223.64182.23613,1.2377.32869,1.81269.02551.16116.04818.316.07084.47215q.09493.65174.1568,1.24821c.01322.12326.02928.25171.03967.37167.04439.49305.07273.96142.08406,1.39992.00189.07557-.00094.14381,0,.21784q.00708.543-.01889,1.033c-.00567.112-.01322.22255-.02078.33082q-.03684.469-.10012.89318c-.00944.05951-.01511.12421-.02456.18241a9.444,9.444,0,0,1-.20591.932c-.02078.07532-.04439.14569-.06706.21877-.06706.2215-.13979.43378-.22008.6358-.02833.07249-.05667.14628-.08689.21653a7.90988,7.90988,0,0,1-1.18823,1.91883c-.0255.03058-.051.06151-.07651.09174-.3032.35845-.62623.69541-.96248,1.0227a8.16083,8.16083,0,0,0-.77263.8156,39.66975,39.66975,0,0,1-2.79206,3.04425,110.44967,110.44967,0,0,0-7.90389,8.86684c-3.54768,4.44878-6.52675,6.1003-9.96487,6.1003a12.18763,12.18763,0,0,1-1.50559-.10909c-.1039-.01323-.20874-.0287-.31264-.04428-.50155-.07391-1.01255-.16954-1.54149-.296l-.00472-.00095c-.069-.01665-.13507-.02727-.20591-.04486-.02267-.00579-.04723-.01358-.0699-.01937-.39953-.10118-.80569-.21382-1.22317-.34074-.2588,4.77936-1.68222,9.33864-4.19658,11.37034-.12846.10367-.26258.19174-.39671.28195-.1124.07556-.221.16057-.3372.22621a4.47371,4.47371,0,0,1-3.24826.48491c-.09918-.02185-.19363-.05632-.29092-.08478a4.58922,4.58922,0,0,1-.63378-.23342c-.10107-.04687-.20119-.097-.29942-.15124a5.27383,5.27383,0,0,1-.58184-.37368c-.08217-.06081-.16718-.11571-.24747-.18183a6.53616,6.53616,0,0,1-.73485-.69824l-.01228-.01146-.00472-.00472-.00378-.00543a9.0119,9.0119,0,0,1-.91809-1.26757l-.00377-.00531-.00284-.00579a16.32615,16.32615,0,0,1-1.873-4.88338c-.01511-.06316-.02739-.12751-.04156-.191q-.12185-.56512-.222-1.14738-.02976-.17656-.05667-.35431-.07935-.51112-.13885-1.03168c-.017-.14439-.034-.28773-.04912-.433-.034-.343-.06045-.68786-.08217-1.0345-.0085-.13838-.02078-.27534-.02739-.41406-.02362-.479-.03779-.9593-.03779-1.43983,0-.69471.02645-1.38328.07462-2.06193.0444-.63685.10768-1.26544.19269-1.87939.02928-.22268.06706-.44653.1039-.66944.01133-.07084.02078-.14192.03306-.21205.052-.29611.10956-.579.16907-.85882.01133-.05526.02172-.11476.03306-.16955l.00378-.01546c.01605-.06376.03022-.11913.04628-.18124l.00189-.00909a26.69544,26.69544,0,0,0,1.48953,2.25969c.61773.782,1.76629,1.93831,1.76629,1.93831-.04345.61076-.06612,1.23156-.06612,1.859a24.32523,24.32523,0,0,0,.34853,4.16989c.03306.18619.07462.35137.11052.52989.08028.39505.1634.78337.2588,1.13958.052.19387.10957.3705.16529.55256.09257.30367.188.59883.29.86862.06422.16931.1294.32822.19552.48384.10389.24286.20968.47026.31736.67888.068.13212.136.26258.205.38053.1124.19021.22386.35515.33532.50769.06611.09.13223.18773.1974.26436a2.62316,2.62316,0,0,0,.34948.33708,2.09309,2.09309,0,0,0,.16246.139.89308.89308,0,0,0,.46094.16872c.99176-.00071,3.27565-3.33634,3.3805-9.77525l-1.38-.75894c-.26258-.12562-.55445-.28572-.86236-.465-.26259-.14758-.53556-.319-.82364-.50356-.05384-.03483-.11146-.0745-.16718-.111-.25409-.167-.49683-.31134-.766-.50875a17.62411,17.62411,0,0,1-2.453-2.11954c-.256-.29234-.89825-.99165-1.51693-1.79037-.75185-.97264-1.48386-2.06039-1.63782-2.33277-.27959-.49612-.35421-.61868-.52894-.93462-.03873-.06907-.07273-.15066-.11146-.22079-.01322-.02456-.0255-.05313-.03873-.07781-.30225-.561-.59789-1.14489-.87936-1.77077-.29659-.65551-.58-1.34691-.84914-2.07928a34.90508,34.90508,0,0,1-1.2194-3.98736c-.62434-2.632-1.11077-4.78456-1.51126-6.60043-.07178-.32681-.1464-.66425-.21346-.96839a163.61618,163.61618,0,0,0-15.02,20.46128l-.10768.16813a10.93255,10.93255,0,0,0-.64417,1.16934c2.02887.06139,3.97178.21464,5.8618.41441,1.891.19977,3.72809.44606,5.54538.69353,2.01753.27415,4.104.55846,6.23206.775l-.391,3.82727h-.001c-2.19132-.22386-4.309-.51194-6.35862-.79011-.03212-.00425-.06423-.008-.09634-.01251-1.11928-.15231-2.22817-.29871-3.33894-.43614-.36837-.04534-.73863-.08312-1.108-.12539q-1.25813-.14487-2.53136-.25621c-.42976-.03778-.86236-.07037-1.29685-.10059-.84914-.06-1.71339-.097-2.58709-.12326-.40142-.01181-.79813-.03023-1.20617-.034-1.27513-.01133-2.57575.00945-3.93211.0954l-.01417.00047c-.08028.027-.16718.066-.24841.09517-.28242.10118-.56767.20673-.8652.33247-.3372.1431-.68668.30627-1.04182.48018-.04062.01984-.08029.0359-.1209.0562-.79247.39317-1.62366.85989-2.47941,1.3906l-.03023.01818c-.83969.52245-1.70111,1.111-2.57481,1.75684l-.00378.00319c-.54688.40391-1.0966.8319-1.64727,1.27737-.04912.04073-.09918.07875-.14924.11984q-.85858.70042-1.71244,1.4704c-.96249.87181-1.91458,1.80549-2.83834,2.79395-.92281.988-1.81729,2.03075-2.66359,3.12028a37.21014,37.21014,0,0,0-4.359,7.038c-.20307.43472-.40992.82954-.61772,1.20594-.13318.24133-.26542.48053-.39765.699.06234.84583.12279,1.74645.1889,2.71838.02267.33483.04723.68786.07179,1.05575.12657,1.83925.28525,4.05089.49116,6.24174.3712,3.94321.89542,7.81912,1.65294,9.33628a2.13391,2.13391,0,0,0,.26069.41513v-.00047l.001.00047v-.00047a19.89316,19.89316,0,0,1,1.81918,2.51908,13.66159,13.66159,0,0,1,1.74172,4.3588,14.42912,14.42912,0,0,1,.22858,1.49993q.07792.78278.07934,1.6357a19.92835,19.92835,0,0,1-.137,2.133,24.49886,24.49886,0,0,1-.43732,2.63833c-.11051.49588-.22952,1.00027-.375,1.52685a40.54233,40.54233,0,0,1-1.2874,3.85418h-.001l-1.5736-.60875-2.01281-.77877c3.7007-9.56439,1.431-13.428-.988-16.29847-2.09121-2.48461-2.71649-9.553-3.37295-19.269-.01794-.26494-.034-.49494-.051-.75043-.09068-1.31244-.17474-2.52995-.26069-3.55146-.12279-.27628-.2418-.54831-.37593-.86615-.6914-1.63027-1.72284-3.70447-2.861-5.95672-.21064-.41607-.41749-.82718-.63473-1.25458a106.86355,106.86355,0,0,1-5.83063-12.74536c-.171-.515-.31642-1.005-.43071-1.46545-.16813-.66353-.36648-1.3861-.60828-2.26783-.20119-.72989-.41938-1.52071-.6404-2.37551-.222-.85481-.44771-1.77408-.664-2.76089s-.42315-2.04138-.60734-3.167c-.27675-1.68836-.50249-3.53635-.63473-5.55624-.04345-.673-.07745-1.36533-.09823-2.077-.0425-1.42365-.03684-2.92523.03117-4.5078q.051-1.18694.14924-2.43549a74.734,74.734,0,0,1,1.09944-8.064c.67157-.07179,1.28363-.16719,1.88246-.281a16.362,16.362,0,0,0,3.90661-1.26332c.31453-.1431.66873-.306,1.05221-.48408.76886-.3568,1.65767-.775,2.59654-1.22081,1.13061-.53733,2.33206-1.11432,3.4844-1.6729.11334-.055.22385-.10874.33531-.16328q.656-.31862,1.27418-.62186c.12468-.061.25125-.12291.37215-.18254.49871-.24487.97665-.48124,1.40452-.69506.085-.0425.2163-.07816.32492-.11712a6.98688,6.98688,0,0,1,.886-.23342c.04817-.00992.09068-.02054.13979-.03022.33437-.06577.70935-.12468,1.11267-.17852.07273-.00968.14451-.01913.21913-.02846q.61773-.07757,1.30535-.14085c.07084-.00649.14357-.01228.2163-.01865.7868-.069,1.62083-.127,2.469-.176.954-.05479,1.91552-.1006,2.82228-.144q.70557-.0333,1.39886-.06754c1.00215-.04959,1.97786-.10272,2.896-.16813.89448-.06375,1.73512-.13932,2.49641-.23471a17.592,17.592,0,0,0,2.01943-.35468,7.19848,7.19848,0,0,0,.78018-.238,22.35058,22.35058,0,0,0,4.3751-2.22037c.28714-.1908.57522-.39317.85953-.60758.28336-.21346.56106-.443.834-.68018.08123-.07084.16057-.14522.24085-.21819q.299-.27238.58278-.56531c.07746-.08016.15585-.15939.23236-.2418a11.08934,11.08934,0,0,0,.71407-.85008l.00661-.00767a9.68334,9.68334,0,0,0,.60545-.92589c.05573-.09516.10579-.19386.15774-.29127q.19551-.36678.357-.75539c.04345-.10461.08785-.20816.12752-.31512a7.96071,7.96071,0,0,0,.32681-1.11338,8.13248,8.13248,0,0,0,.08311-2.76088c-.00472-.03164-.00283-.06092-.00661-.09257-.07178-.48454-.14451-.97511-.22007-1.46887-.03117-.20473-.06423-.4117-.0954-.61749-.04345-.277-.086-.55326-.13035-.83178-.04723-.30143-.09729-.604-.1464-.90641q-.04534-.28017-.09162-.56046-.08218-.4973-.16907-.99377c-.0274-.16022-.05479-.32044-.08312-.4803q-.09068-.51394-.18419-1.02435c-.02645-.14617-.05384-.29245-.08028-.43815q-.09777-.52456-.20025-1.04253c-.0255-.13176-.052-.26317-.07745-.39423q-.10767-.53448-.21819-1.05941c-.02361-.11323-.04817-.22587-.07178-.33839q-.1176-.54335-.239-1.07393c-.01983-.08985-.04156-.17876-.06234-.268-.08595-.36884-.17285-.73331-.26258-1.09-.01606-.06364-.03306-.12563-.04912-.18867-.09539-.37711-.19363-.74855-.29375-1.109-.00661-.025-.01417-.049-.02078-.07391a19.93445,19.93445,0,0,0-2.32734-5.6919,5.35426,5.35426,0,0,0-.578-.71478c-.18419-.18407-.41843-.39517-.69329-.62776-.27392-.2326-.58845-.48668-.93415-.75693-.57239-.44724-1.22507-.93675-1.94953-1.46191-.41465-.30048-.85291-.61218-1.30157-.92883-.16057-.11311-.32775-.22929-.4921-.34393-.2947-.20662-.59128-.41359-.89448-.62363-.19552-.1346-.39293-.26979-.58939-.40509q-.43071-.29559-.86425-.59152-.29471-.20047-.59034-.40013-.43922-.29735-.87653-.59163c-.19552-.13153-.391-.26294-.58467-.39293q-.44487-.2977-.88031-.58727c-.18041-.12043-.3627-.24227-.54027-.36022-.26542-.176-.52139-.34535-.77736-.51489-.20213-.13354-.40993-.27132-.60545-.40013-.40426-.26719-.8-.52776-1.16839-.76992-.41465-.27261-.8038-.52764-1.15895-.76094-.408-.26778-.75374-.49447-1.06166-.69754-.41937-.27533-.73107-.48266-.92-.61183-.04817-.03305-.1124-.0758-.14357-.098-.068-.04841-.17379-.09941-.25786-.14924a6.745,6.745,0,0,0-.73485-.36471c-.14451-.06293-.28525-.12609-.45243-.18607.08973.14581.17852.30107.26825.45066.35231.58892.70085,1.19815,1.039,1.83051a83.446,83.446,0,0,1,3.78948,8.35267c.02078.053.03968.10142.06046.15372.10767.27321.21063.53709.30791.78952.02078.05442.03968.10437.06045.15785q.14169.37173.26825.70687c.01323.03707.02645.07119.03967.10744.0869.23318.16813.45.24181.65091.00661.01924.01322.03742.02078.05631.324.88574.51288,1.43971.52232,1.46805.31926.95682.59223,1.84752.84914,2.6839.92565,3.01733,1.57455,5.05989,3.33611,6.87151a11.14993,11.14993,0,0,0,1.40736,1.2364l-2.282,3.09856-.001-.00024v.00024a15.15224,15.15224,0,0,1-1.89474-1.668c-.29469-.30308-.56578-.61029-.817-.92152-.09446-.11594-.17191-.23554-.2607-.35266-.14829-.1973-.3013-.3934-.43543-.59447-.09917-.14889-.18513-.30226-.27769-.45326-.10579-.17344-.21819-.34523-.31548-.52174-.09539-.172-.17946-.34936-.2673-.52446-.08123-.161-.16718-.32008-.24275-.48384-.08878-.19174-.16907-.3895-.25219-.58514-.06423-.15278-.13223-.30331-.19363-.45857-.085-.21524-.16435-.43708-.24463-.6574-.05195-.14144-.10579-.28064-.15491-.42421-.09067-.26011-.17852-.52788-.26541-.79542-.03495-.10555-.0699-.20922-.1039-.31607-.13129-.41075-.26164-.82942-.39387-1.25883-.00567-.02078-.01228-.04109-.01889-.06234-.04629-.14994-.10579-.328-.153-.482-.2078-.6744-.41654-1.35943-.66779-2.11293-.38726-1.16225-.8293-2.37882-1.30818-3.60483a79.18778,79.18778,0,0,0-3.713-8.17072c-.27486-.51324-.54689-1.00274-.81514-1.46273l-.0085-.01429c-.23707-.40544-.46943-.77948-.698-1.135-.07084-.11039-.14074-.21252-.21063-.3176q-.25361-.37971-.49588-.70982c-.06707-.08985-.13318-.18241-.19836-.26636a9.52735,9.52735,0,0,0-.63189-.75079,7.15037,7.15037,0,0,0-2.9479,1.18728c-.33059.23307-.732.52446-1.19012.8619-.45716.33719-.971.72068-1.52637,1.13769-1.10983.8345-2.3859,1.80359-3.71015,2.80858q-.53271.40521-1.06827.81136c-.31075.236-.62056.471-.92659.70285l-.07462.05656q-.71549.54228-1.39225,1.05174c-.04345.03247-.08689.06565-.13034.09776q-.68149.51377-1.295.9698c-.05668.04192-.11146.08312-.16719.12409-.39387.29281-.76224.564-1.09188.80392-.04628.03365-.0869.06258-.13129.09516-.33059.23874-.63095.45374-.87181.61915-.17.11689-.392.26069-.58939.39127-.58939.39128-1.25718.8234-2.05248,1.33345-.49022.31395-1.005.645-1.5226.98008-.08973.05809-.17851.11535-.26825.17391-.51382.33378-1.03143.67547-1.54242,1.01928q-.1516.10218-.3032.20449c-.511.34688-1.01255.69506-1.49237,1.04112-.07273.05289-.14168.10508-.21441.15785-.49872.364-.9776.72564-1.40831,1.07666-.2673.21771-.51855.43189-.75.64122-.26447.239-.50344.472-.71218.6966-.04345.04651-.10673.111-.154.161-.6999.74311-1.83051,1.87585-3.14625,3.19254l-.00095.00165.30131.30225-.30225-.30166-.05384.054-.05384.05431.56105.34428v.00024l-.562-.34429c-.783.78326-1.57359,1.57337-2.33111,2.338-.37876.38254-.749.7587-1.10606,1.12447-1.431,1.46356-2.65226,2.763-3.34933,3.64379-.17474.22031-.31642.41442-.42126.57829l-.25125.39057c-.36459.56106-.87936,1.35659-1.4442,2.3434-.07556.13318-.15679.29044-.23519.43094-.20213.36436-.40709.74489-.61583,1.15659-.103.20508-.20686.43035-.31076.64689-.18607.38773-.37026.79022-.55161,1.21338-.1124.26033-.22007.53295-.3287.80628-.16907.42587-.33153.86992-.48832,1.32636-.103.29954-.204.603-.30036.91526-.14735.47983-.27864.98232-.40616,1.49095-.08123.322-.16435.63957-.23519.97276-.1209.56885-.21157,1.16532-.29941,1.76534-.04345.3032-.10107.59494-.13507.90569a26.23314,26.23314,0,0,0-.1653,2.86349c0,1.7233-.11523,3.84851-.29091,6.12485-.05857.75894-.12468,1.5344-.19458,2.31742-.13979,1.56652-.29942,3.16279-.46093,4.71513-.16246,1.55235-.32776,3.06078-.47983,4.45066-.09067.821-.1719,1.57171-.24747,2.2787-.12562,1.17808-.22952,2.196-.28808,2.93-.05667.70793-.4156,2.39109-.87748,4.56117C2.783,194.94439-1.4334,214.77023.49251,235.79186c.11429,1.24254.24086,2.48791.39954,3.73683l.26636,2.10348.95021,7.52608c.29564,2.34694.56861,4.51312.82552,6.54127.05573.4411.1124.888.16719,1.31468.04722.3718.0935.73509.13979,1.096.11995.9404.239,1.86133.35137,2.73042.11523.88527.2248,1.72.33247,2.5342q.04251.31452.08312.62186c.10768.8071.21347,1.5913.31548,2.32922q.15159,1.10227.29564,2.10514.14451,1.00346.28336,1.91293c.562.53413,1.22129,1.14218,1.95708,1.7958.4241.37734.86992.76767,1.34786,1.17382.86991.74,1.8239,1.52118,2.85344,2.31979,1.37147,1.06449,2.88084,2.159,4.49222,3.22772.24369.1614.50061.31819.74808.47817.55066.35479,1.106.70746,1.67938,1.05221.30981.18667.62907.3666.94549.54937.53366.30839,1.072.61194,1.62177.90664.34664.18584.699.36577,1.05127.54512q.81607.41458,1.652.8012c.36554.16978.732.33708,1.10322.498.57145.24782,1.1514.47793,1.73417.70226.36649.14109.73108.2862,1.10134.4169.6385.22539,1.28551.42209,1.93441.61371.323.09552.64228.20414.9672.29044.97666.25928,1.96181.48432,2.95546.65315.58467.09918,1.14006.17828,1.67939.24582.1738.02172.3372.03683.50627.05549.35609.03943.70746.07533,1.04277.10177.18608.01464.36554.02551.545.03637.30414.01865.60073.03306.88787.04156.171.005.341.00968.50532.01133.18135.00213.35137-.00189.52517-.00378.59222-.00614,1.15422-.02786,1.66616-.07154.03684-.00307.0784-.004.11523-.00732.54028-.04959,1.02672-.12091,1.482-.20214.102-.01794.20308-.03636.30131-.05572.42693-.085.82647-.17781,1.17689-.28006.04062-.01181.07368-.02432.1124-.03613.323-.09752.61206-.2.87087-.303.05572-.02243.11523-.04439.16907-.06659.26069-.10956.49116-.21866.68668-.32209.03872-.02077.07273-.04014.10956-.06045.16719-.093.31548-.18229.4326-.26022.01512-.01062.0359-.02266.051-.03258.12373-.085.2163-.1568.28147-.21016l.03967-.0333c.04062-.03542.0784-.07013.08123-.07249l2.94224,2.477H49.258c-.04439.052-.12562.14381-.24936.26494a6.37972,6.37972,0,0,1-.50533.44087c-.16718.13152-.36553.27474-.59128.4235-.19552.12834-.41465.26081-.65739.39482-.08312.04628-.18136.09174-.27109.13814-.18324.09516-.37026.18938-.57994.28348-.12.05407-.25125.10555-.37971.15868-.20685.08536-.41937.16848-.64889.24983-.15019.05325-.307.10343-.46755.15443-.239.07615-.48927.1477-.75091.21713-.17757.047-.35609.09221-.545.13554-.28147.06493-.58183.122-.88881.1771-.1974.03542-.39009.07237-.59789.10319-.35137.05207-.72824.09091-1.11077.128-.19458.01889-.37593.04357-.57806.05809-.59978.043-1.2279.07-1.90135.07-.886,0-1.83807-.04038-2.85818-.13035-1.021-.09-2.111-.22929-3.27376-.42717a41.66572,41.66572,0,0,1-9.62484-2.95191c-1.22506-.53414-2.42274-1.11338-3.58735-1.725a75.27346,75.27346,0,0,1-13.198-9.01231c.10106.45527.20307.86343.30508,1.24963.05384.20224.10862.38324.16246.56719.04345.14865.0869.29788.13129.43531q.11052.34553.22575.64583c.01983.05408.04061.1065.06045.15833.08973.22374.17946.43449.27108.622.08406.17155.16718.34877.255.49092A13.91033,13.91033,0,0,1,8.76477,284.011c.2777.9606.52328,1.9637.75847,2.963.306,1.30724.62339,2.65887,1.02954,3.87874.08123.246.15113.511.21536.78349.06328.2725.1209.55256.17568.82789.068.33071.14263.67806.22669,1.02907.02834.11784.06423.239.09634.35834q.102.38679.23614.78042c.04628.13861.09917.27734.154.41631a8.36756,8.36756,0,0,0,.35892.775c.06612.12669.12562.25384.20119.37947a7.04692,7.04692,0,0,0,.78113,1.0835,7.54152,7.54152,0,0,0,.87464.82305c.09351.076.19741.149.29753.22326a9.053,9.053,0,0,0,.834.54736c.12184.071.239.14286.36931.21134a11.88957,11.88957,0,0,0,1.43286.64866,21.59555,21.59555,0,0,0,5.30736,1.15045l.03778.00378q1.13771.119,2.27917.22385c.22386.02078.44866.04015.67346.06q.99459.08784,1.99392.15916c.15584.01109.31075.02432.46754.03471q1.17879.079,2.37268.12633c.20874.0085.41843.01346.62812.02031q.96768.03188,1.94858.03731c.21441.00141.42693.00472.64228.00425.75563-.00236,1.51693-.01394,2.28673-.04345.04817-.00189.09729-.00614.14546-.008q1.07961-.04392,2.18282-.13082c.24936-.01936.5025-.04439.75374-.06706q.83308-.07509,1.68034-.17592c.27486-.03282.54972-.06612.82741-.10319.6234-.08383,1.25435-.18135,1.891-.28856.20118-.03377.39859-.06139.60072-.09776q1.24678-.22384,2.53136-.51288c.21063-.04746.42693-.10461.63851-.15491q.99177-.23448,2.00714-.51005c.2947-.08052.59223-.16623.8907-.25219q.9606-.27769,1.94669-.59718c.28336-.09186.56484-.1797.852-.27651.93037-.3143,1.87113-.648,2.83456-1.01963l.00472-.00189c.10957-.042.23331-.09918.34476-.1431,6.44364-2.5545,16.2366-8.349,25.44584-14.2951Q82.42736,281.975,83.80922,281.06638ZM119.97934,39.18874l-.30131-.187-.273-.1686,2.05154-3.25629h.00094l.545.33956c.39482.24417.834.51761,1.2874.81656a17.28854,17.28854,0,0,1,2.42841,1.8801q.25644.24369.49588.50344a6.11963,6.11963,0,0,1,1.79557,5.28941l-3.797-.621a2.31142,2.31142,0,0,0-.60545-1.771,6.14038,6.14038,0,0,0-.72446-.78349c-.03778-.03448-.08218-.06635-.12185-.10059A21.57114,21.57114,0,0,0,119.97934,39.18874Zm-27.606,16.39481a7.64753,7.64753,0,0,1-3.98217-3.23976c-.03589-.0529-.0765-.10485-.1124-.15774-.05761-.08642-.10767-.15656-.16151-.23566s-.11051-.16718-.16152-.23543v-.00023l.61206-.46165L91.02643,49.398l.00095.00024c.14546.19127.29469.41559.45715.65834.14641.221.30037.44913.47038.66921l.05006.06186a3.88463,3.88463,0,0,0,.57334.59034c.017.0144.03306.02975.051.04345a2.84282,2.84282,0,0,0,.81325.45125c.01511.00543.03211.0085.04817.0137a3.51886,3.51886,0,0,0,1.07488.16789c.04818.00094.09729.00141.14735.00047a5.69858,5.69858,0,0,0,.89826-.08737c.0425-.00732.08973-.02031.13318-.02881a9.43148,9.43148,0,0,0,1.00687-.26069c.07179-.02243.1398-.04062.21347-.06517.39671-.13224.82836-.30037,1.29024-.50108.10012-.04369.20591-.09257.30981-.13979.48927-.222,1.00309-.46967,1.56982-.77358l.017-.00874c.51288-.27545.987-.53035,1.42625-.76613s.84253-.45244,1.21279-.65138q.41654-.22386.7783-.41855c1.69355-.90994,2.537-1.36356,2.92617-1.573.017-.0085.03023-.016.04534-.025.06328-.03329.10012-.05289.137-.073.06234-.0333.1039-.056.1124-.05974l.00189.0033.00566.00779a2.85711,2.85711,0,0,1,.562-.17828c.06045-.01228.11335-.01228.171-.01936a2.2128,2.2128,0,0,1,.26258-.02975c.01511,0,.02456.00708.03872.00732a1.72516,1.72516,0,0,1,.57806.11074c.03873.01464.07367.03212.10957.04912a1.82939,1.82939,0,0,1,.38253.23424c.01228.01039.02834.01937.04062.02976a2.04842,2.04842,0,0,1,.28147.29965c.017.022.03306.04321.04723.064a2.2844,2.2844,0,0,1,.1294.1993l.00189.00236a1.65915,1.65915,0,0,1-.494,2.33313c-.10012.08111-.20686.15939-.31831.23554l.02078.04015h-.001l-.29375.15773-.00944-.016c-.28525.17379-.59128.33909-.89543.502l-2.26783,1.21892-3.17081,1.70395c-.51289.2758-.97854.48266-1.45459.70439A14.62078,14.62078,0,0,1,94.52972,55.899,7.13077,7.13077,0,0,1,92.37334,55.58355Zm9.72213,52.00765-3.79138-.65362-.00094-.00023a2.67172,2.67172,0,0,0-.22291-1.08268c-.22575-.64795-.58278-1.43818-.9691-2.2539-.04061-.08607-.07934-.17049-.12-.25644-.38821-.81585-.82836-1.7585-1.26474-2.79465-.32586-.77264-.6489-1.59155-.94359-2.478a14.49259,14.49259,0,0,1-.71974-3.19655,8.26086,8.26086,0,0,1,1.66428-5.80678c.08784-.1379.17757-.29092.2673-.43519.09823-.158.19552-.30769.29186-.47652v.00023l.17663.10154,3.15759,1.81942v.00023c-.21347.36932-.42882.71218-.63851,1.04419a6.62388,6.62388,0,0,0-1.0456,2.15768,3.77145,3.77145,0,0,0-.0784.81076,5.57628,5.57628,0,0,0,.06234.76531,12.08542,12.08542,0,0,0,.51194,2.001c.154.46306.33153.8633.49966,1.294.21913.56248.42977,1.12448.6574,1.63736.29564.6659.59506,1.31243.87653,1.90513.4666.98232.868,1.86475,1.175,2.708.08312.22811.15774.4581.222.67983a7.26724,7.26724,0,0,1,.26258,1.271A4.49574,4.49574,0,0,1,102.09547,107.5912Zm2.80527-4.44121c-.017-.01488-.17946-.17144-.3882-.37522-.41843-.40828-1.09472-1.08645-1.65861-1.75235a9.03776,9.03776,0,0,1-1.51976-2.49948c-.03117-.07757-.08312-.15692-.11146-.23425-.02928-.08217-.03589-.1614-.06234-.24322a6.71226,6.71226,0,0,1-.3457-2.36252v-.00071l.00095-.01393c0-.01122.00094-.02255.00189-.034a6.60787,6.60787,0,0,1,.17946-1.23687c.00945-.03719.01984-.07332.03023-.10968l.01133-.03956.00094-.00283c.01984-.07367.05573-.14026.07746-.213a7.38113,7.38113,0,0,1,.36175-.98563l.00284-.0059.00378-.00708a8.0865,8.0865,0,0,1,.68573-1.17855,8.95566,8.95566,0,0,1,1.08055-1.2815c.08312-.08194.19646-.16388.29847-.2457a8.52018,8.52018,0,0,1,.8652-.60415,24.39365,24.39365,0,0,1,3.55618-1.70725c.42694-.17061.85292-.33271,1.26663-.48408,1.328-.486,2.50869-.86094,3.14814-1.05646l2.95357-1.02577.06234,4.51158a13.10966,13.10966,0,0,1-.08406,2.87376,11.978,11.978,0,0,1-1.43192,4.60946c-.239.42315-.50722.83639-.80569,1.26013-.51572.73084-1.11361,1.4893-1.83052,2.38614l-.04817.05856-.05667.07037c-1.18445,1.48044-1.23829,2.00313-1.03521,2.82369.02928.11724.06328.24051.10106.37357.05856.21181.10957.44629.16435.672.03778.15632.08218.29847.11335.46518l-2.46808.46259-.04817.07627-.05762-.05667-1.20806.22669c-.05478-.29187-.13035-.55728-.20213-.81278-.09351-.33838-.1738-.67534-.23614-1.01632l-1.34407-1.30937Zm13.98955,86.385c-.00945.38537-.02173.75138-.034,1.08763-.01794.48278-.03494.94513-.03022,1.26757.00189.10756.00661.19953.01417.27156l-3.82538.40567c-.02267-.21016-.02456-.45479-.02645-.70037-.00189-.16341-.00566-.33956-.00189-.52139.00662-.273.01323-.54476.02456-.86472.02173-.60025.04723-1.27749.04251-1.99321-.00189-.35774-.01134-.72517-.03117-1.09732a14.33,14.33,0,0,0-.289-2.25083,7.64878,7.64878,0,0,0-1.35069-3.08439c-.15774-.204-.3117-.36388-.46849-.54594a8.58481,8.58481,0,0,0-1.74645-1.5952,3.23507,3.23507,0,0,0-1.31952-.55551,2.16649,2.16649,0,0,0-.3457.00047,2.51326,2.51326,0,0,0-.85008.18324c-.0444.01795-.09068.0444-.136.0647a4.661,4.661,0,0,0-.95587.57948l-1.57927-2.02037-.78963-1.01018a9.04161,9.04161,0,0,1,1.17028-.77381c.12657-.07061.255-.12067.3816-.183a7.20928,7.20928,0,0,1,.81135-.34759c.15207-.05242.30509-.08973.45716-.12987a6.16153,6.16153,0,0,1,.76224-.15491c.15868-.021.31737-.03636.477-.04486.1039-.0052.20686-.02928.3117-.02928a6.05214,6.05214,0,0,1,.76224.04888h.00189c.11523.0144.22763.04463.34192.06517a7.4242,7.4242,0,0,1,3.18026,1.46285,11.266,11.266,0,0,1,1.02482.88409c.02551.02456.051.04416.07651.069q.3712.36589.73958.78586.36978.42007.73579.89471a11.64316,11.64316,0,0,1,2.14693,5.0175A22.905,22.905,0,0,1,118.89029,189.535Zm2.31506-94.78718a13.96358,13.96358,0,0,1-1.60666,5.32531,12.295,12.295,0,0,1-1.8069,2.511l-1.45648-1.36061-1.35446-1.26426V99.9591a8.58431,8.58431,0,0,0,1.50653-2.26145,10.138,10.138,0,0,0,.75941-2.40385,9.55779,9.55779,0,0,0,.13885-2.56466v-.00023l2.80528-.25656,1.02671-.09387v.00012l.00094-.00012c.03212.35987.04912.74052.04723,1.137C121.26486,93.91194,121.245,94.32423,121.20535,94.74785Zm2.30184-29.189L122.505,68.06c-3.7177-1.48907-10.21234-6.60137-12.86838-10.12922l.001-.00024,1.53676-1.15729,1.53582-1.15706a38.29666,38.29666,0,0,0,9.945,8.25644,12.17432,12.17432,0,0,0,1.2808.61536Zm5.6625-7.2224c-.07178.00094-.14074.00094-.20685.00094h-.00095c-.05384,0-.09634-.00519-.14735-.006a3.45885,3.45885,0,0,1-.936-.11346,3.02872,3.02872,0,0,1-1.00782-.55681c-.06045-.0477-.136-.10579-.23425-.17663-.07367-.05324-.16057-.11369-.26636-.18253a16.79854,16.79854,0,0,0-1.54526-.87535,7.47689,7.47689,0,0,1-1.06733-.65669,4.75884,4.75884,0,0,1-1.8494-2.61235c-.5365-2.00738.39387-3.99965,1.48481-5.77349.15585-.25337.31547-.50249.47416-.74618l2.20738,1.43475,1.01916.66165c-.41938.6437-1.69073,2.59889-1.46781,3.4315a.61514.61514,0,0,0,.103.18466,2.47812,2.47812,0,0,0,.84725.65079c.35515.18182.664.34759.9332.49871a13.332,13.332,0,0,1,1.41492.89353c.0425.03117.09729.069.13412.09682.0189,0,.03779-.00142.05668-.00142l.34475-.005L130.493,54.469h.00094l.05478,3.8471Zm69.38289,210.65028-2.24233.54972-1.4952.367a15.8772,15.8772,0,0,1-.54406-3.75572c0-.01535-.00189-.034-.00189-.04935a7.60722,7.60722,0,0,1,.06045-.93462,7.02725,7.02725,0,0,1,.40143-1.60406c.13885-.37262.30981-.74123.49305-1.11857.06423-.13082.12373-.2588.1908-.39387.02833-.05478.05761-.11665.08595-.17261.19269-.38585.39387-.79436.59411-1.28339a14.83246,14.83246,0,0,0,.66212-2.043,7.97647,7.97647,0,0,1,.42316-1.21184c2.81472-6.51448,15.6047-19.4655,18.24846-21.296l.59223.8567,1.59721,2.30656c-.12846.08867-.28242.20815-.4496.34346-.187.15077-.39009.32209-.60828.51135-.45527.39529-.96626.85764-1.5566,1.42294-.375.3594-.77358.749-1.18917,1.16391-.8312.82954-1.73323,1.75944-2.66265,2.74837-1.39414,1.48316-2.84967,3.099-4.224,4.70852-1.37335,1.609-2.66454,3.21142-3.73,4.66743-.70935.97051-1.31858,1.87585-1.78518,2.67493a8.45343,8.45343,0,0,0-.92376,2.03642,18.64067,18.64067,0,0,1-.613,1.97408,21.68556,21.68556,0,0,1-1.022,2.3179c-.188.374-.34854.69282-.47133,1.00971C198.01419,265.73276,197.98208,266.66171,198.55258,268.98669Zm13.7383-65.67747q-.71691-1.10087-1.39036-2.22805a66.098,66.098,0,0,1-7.00091-16.15643,39.24616,39.24616,0,0,1-1.52449-10.16984h3.84711a39.70158,39.70158,0,0,0,2.49641,12.74418,64.97726,64.97726,0,0,0,6.79689,13.71137Zm8.09091,108.508a3.51,3.51,0,0,1-.12657.34523l-1.17878-.506-2.35757-1.01183a.77274.77274,0,0,0-.07367.30036l-.00095-.00236v.00236c-.00094-.02881-.00661-.07391-.01417-.12621l-.00283-.01972a2.14089,2.14089,0,0,0-.05856-.24593l-.001-.00484a6.90671,6.90671,0,0,0-.34664-.88752l-.00567-.01251a24.80314,24.80314,0,0,0-1.431-2.5767c-.017-.02692-.02834-.047-.04534-.07426-.24747-.39813-.52705-.83415-.84253-1.31149-.50533-.76413-1.10322-1.63405-1.81068-2.62393s-1.52448-2.09935-2.46713-3.34283c-.94359-1.24337-2.01186-2.62062-3.2237-4.14546v-.00024l.81513-.64819,2.19511-1.74645v.00024l.00094-.00024a120.887,120.887,0,0,1,8.99389,12.43944,15.83031,15.83031,0,0,1,2.00053,4.40757c.034.15679.05856.30426.07651.4437A3.14774,3.14774,0,0,1,220.38179,311.81721Zm6.761-36.81583a35.449,35.449,0,0,0-4.44122,3.93176c-.39387.38891-.78963.77971-1.19012,1.16579s-.80663.76815-1.21939,1.13959a23.37874,23.37874,0,0,1-2.58993,2.05508A12.05987,12.05987,0,0,1,211.421,285.493c-.33248.0163-.66023.02362-.98137.02362a20.8429,20.8429,0,0,1-10.8603-3.06125,11.36518,11.36518,0,0,1-.94453-.64559l.14923-.18938,2.22722-2.83645.00095.00024v-.00024c.00377.00331.07273.05549.19363.13932.017.0111.04628.02881.06423.04132.11806.08053.26447.17711.46565.29966.07557.04581.17852.10012.26447.15018.18041.10484.357.20733.58373.32587.13223.06871.29186.13884.43826.21063.22575.11.44582.21724.70652.32917.18229.07816.38915.15018.5875.22716.27014.10484.53555.20733.834.30556.22763.07462.47415.13672.71784.2052.31076.08784.61868.17309.95493.24723.26825.059.55161.1006.835.14829.34854.059.69707.11429,1.06827.15278.30415.03141.62057.042.93887.05691.51383.02456,1.02577.05384,1.5736.02739,3.39278-.16151,5.88069-2.615,8.76153-5.45659a28.469,28.469,0,0,1,7.01225-5.58552l1.721,3.44142A12.91435,12.91435,0,0,0,227.14279,275.00138Zm23.6276,25.02423a3.67223,3.67223,0,0,1-.92848.86283,7.66393,7.66393,0,0,1-1.49142.75044,9.16019,9.16019,0,0,1-3.28133.61843,8.95744,8.95744,0,0,1-.91431-.05029c-.19741-.02008-.374-.05243-.55444-.08407-.14074-.02456-.2947-.04156-.42316-.07226a5.864,5.864,0,0,1-1.25529-.44133,3.97984,3.97984,0,0,1-.96153-.65433c-.03212.01039-.05384.00543-.086.01511a3.24867,3.24867,0,0,1-.89636.1575l-.00662.00119a1.93461,1.93461,0,0,1-.66589-.12,1.5652,1.5652,0,0,1-.16341-.07367,1.76294,1.76294,0,0,1-.35892-.222c-.03967-.03306-.08312-.06376-.12-.09918a2.15886,2.15886,0,0,1-.31831-.37923c-.84819-1.329.21536-2.47374.67062-2.96207a7.40138,7.40138,0,0,1,1.78707-1.42731c.19079-.10756.37592-.20024.55539-.27994a6.15887,6.15887,0,0,1,.97287-.34051,5.19075,5.19075,0,0,1,.70651-.13129,6.4343,6.4343,0,0,1,.89731-.144c.10485-.01039.22386-.00944.33343-.01629.20024-.012.39387-.02952.60733-.02952.03684,0,.07651.00378.11335.00425.09351.00095.19079.008.28714.01134q.391.01345.79435.0536c.119.012.23708.02574.35609.04132.273.03589.546.08359.81608.13932.09729.01984.19552.03542.29187.05785a9.34754,9.34754,0,0,1,1.04371.3058c.06517.02338.12279.05384.18607.07887a6.54987,6.54987,0,0,1,.7528.34877c.09445.05171.1823.10791.27108.16387a4.23945,4.23945,0,0,1,.54028.40474c.07178.06305.14735.12373.21157.191a2.70551,2.70551,0,0,1,.50911.70061l.00567.0078a2.52284,2.52284,0,0,1,.23424,1.22813A2.59587,2.59587,0,0,1,250.77039,300.02561Zm-12.32716-72.67555a27.2327,27.2327,0,0,0,5.552-3.90141c.9946-.82506,1.85224-1.53582,2.63337-2.06193a5.4873,5.4873,0,0,1,1.94008-.88267c.07935-.01629.16152-.06116.23992-.07084a3.7984,3.7984,0,0,1,.46093-.0255l.017.00047c.018,0,.03967.00189.05856.00189.14641.00212.30509.00992.47794.0229.05951.00449.12185.00992.18419.01535.1549.0137.31925.03023.49966.0503.07178.008.13884.01511.21535.02385.24369.02881.50533.06045.80286.09729.36459.0451.783.09539,1.21656.14545.0954.01134.18135.02126.27958.03235.45527.051.94265.10036,1.45837.14664.10295.009.204.017.30886.026.54217.04534,1.10606.08595,1.70206.11547.05384.0026.10957.00354.16341.00614.56861.02621,1.15989.04061,1.76817.04368.10862.00048.21347.00331.323.00284.35987-.00095.72824-.00945,1.09944-.02078.10674-.00331.20969-.00331.31642-.00756q.71832-.02833,1.46026-.08761c.13412-.01062.27014-.02762.4052-.04014.36176-.03329.72541-.07013,1.09283-.11641.188-.02362.37876-.05384.56767-.08123.32114-.04629.64323-.09587.96721-.15325.20685-.0366.41371-.07769.6215-.11925q.47179-.09387.94643-.20544c.21158-.04959.42126-.10083.63284-.15585.323-.08383.64606-.1771.9691-.27439.20213-.06092.40426-.11948.60639-.18583.35515-.11618.7084-.24676,1.0626-.38042.16908-.06375.33815-.12137.50628-.18938.52233-.21063,1.04277-.43755,1.55943-.69045l.84536,1.72838.84536,1.72815v.00024c-.59128.28926-1.18445.54854-1.77856.7894-.19175.07792-.38349.14427-.57523.21724-.40332.15349-.80663.30249-1.20995.4359-.22386.07415-.44866.14121-.67346.20969-.37214.11335-.74429.22149-1.11455.31925q-.34571.09068-.68857.17333-.55539.13282-1.107.24369c-.21724.04392-.43448.08926-.64984.12845-.3967.07226-.78963.13318-1.18161.19033-.17852.026-.35893.05714-.53745.08028-.56011.07273-1.11455.13413-1.65955.17994l-.01133.00094c-.5535.04676-1.0985.07793-1.63405.1006-.1738.00708-.34193.009-.51383.01416-.358.01039-.71407.01913-1.06261.02078-.06328,0-.1294.00378-.19174.00378-.085,0-.16151-.00566-.24558-.00614-1.39508-.008-2.6976-.07792-3.87071-.17592-.10107-.0085-.20591-.01629-.30509-.02526-.55727-.04959-1.0881-.10343-1.58021-.15869-.102-.01133-.1993-.02266-.29847-.034-.46755-.05431-.91337-.10768-1.30819-.15679-.08406-.01039-.17-.02078-.256-.03164-.42882-.0529-.86236-.10532-1.17217-.13271-.12468-.01086-.22857-.01795-.30508-.0196a10.89389,10.89389,0,0,0-1.771,1.2593c-.37687.30367-.75657.61443-1.09661.89731-.46093.38183-.9502.78728-1.46025,1.1965-.37593.301-.76225.60368-1.158.90026a20.74688,20.74688,0,0,1-3.7262,2.30573c-.034.01559-.06706.03826-.10012.05337h-.00094Zm31.54283,25.878a45.831,45.831,0,0,0-4.37415,2.65581c-.6914.46317-1.39225.92789-2.05343,1.38445-.67251.46353-1.3214.91148-1.95235,1.33168s-1.243.81289-1.84185,1.16568a17.31206,17.31206,0,0,1-2.10065,1.05162,10.34132,10.34132,0,0,1-1.36392.49459c-3.82443.99837-9.27724,3.9595-11.22677,5.05752-.29942.16884-.51666.29375-.63189.36034l-.09446.05526-.97476-1.65814-.97665-1.65813c.03967-.02314.18985-.111.4326-.24983.1209-.06942.26541-.15136.4307-.24464.66118-.37214,1.65672-.92045,2.84117-1.53345q.44488-.22987.92282-.46991c.63567-.31925,1.30913-.64748,2.00242-.97122a39.42,39.42,0,0,1,6.3029-2.40975,10.88885,10.88885,0,0,0,2.62486-1.23192c.27487-.16411.563-.34971.84914-.53295.46283-.29682.93321-.60356,1.41964-.93509.3816-.25975.7613-.51808,1.15328-.78775,1.43853-.99318,3.00741-2.06523,4.69247-3.07352a36.9579,36.9579,0,0,1,3.40694-1.8069,24.51519,24.51519,0,0,1,5.246-1.81068,20.07012,20.07012,0,0,1,2.3094-.35231l.35514,3.82962A20.17365,20.17365,0,0,0,269.98606,253.228Zm47.139-48.65879,3.54768,1.49284a3.27274,3.27274,0,0,0-.16057.72234c-.01795.14545-.03212.31075-.03684.49375a5.98217,5.98217,0,0,0,.23519,1.805,8.78841,8.78841,0,0,0,2.20077,3.63789,30.33412,30.33412,0,0,1,5.0495,6.54588,11.33673,11.33673,0,0,1,1.3403,6.79288h-.00095l-1.27323-.14853-2.54837-.29729a7.14752,7.14752,0,0,0-.40142-3.38239,13.27843,13.27843,0,0,0-1.83713-3.211q-.30178-.40945-.64228-.838c-.68291-.85858-1.49426-1.78281-2.47186-2.80929C314.95077,209.94058,317.03348,204.78576,317.1251,204.56923Zm-15.5282,15.92266c.306-1.14986.61017-2.30644.90864-3.46138q.2352-.91029.46472-1.81752c.306-1.2083.60261-2.40739.88786-3.58594.2862-1.17831.55917-2.33561.818-3.46008.51572-2.2487.9691-4.36518,1.33274-6.25354s.63662-3.54839.78964-4.884c.0765-.66779.12373-1.25435.137-1.74787l3.84522.10508v.00024h.00094c-.18513,6.73833-6.04032,29.23792-9.78163,41.13295q-.486,1.54645-.91714,2.82582-.17994.53272-.34759,1.01574c-.33626.96437-.63757,1.77029-.8907,2.37515l-3.54769-1.48764c1.2109-2.88545,3.69126-11.05428,6.0526-19.83576C301.43255,221.10631,301.51472,220.8,301.5969,220.49189Zm-55.08071-32.46316a8.62838,8.62838,0,0,1,2.13183-4.31064,9.4643,9.4643,0,0,1,4.14274-2.58661,13.43318,13.43318,0,0,1,4.1144-.60545h.00095a31.88166,31.88166,0,0,1,4.479.28454,16.28071,16.28071,0,0,1,3.47874.85126,6.38445,6.38445,0,0,1,3.91605,3.38664c.78774,1.89734.27958,4.12338-1.3403,6.10077-.204.24889-.41938.49588-.65834.7358a8.98154,8.98154,0,0,1-2.50775,1.70784c-.09351.04486-.18891.08028-.28336.12267a16.01869,16.01869,0,0,1-1.5311.59695c-.07839.026-.15112.04557-.22857.07013-.79531.25148-1.533.43531-2.09877.5731l-.21913.05478-.32775.0817a23.85125,23.85125,0,0,1-2.51436.51962,18.4528,18.4528,0,0,1-2.793.2431,12.54013,12.54013,0,0,1-2.60976-.25645,9.2332,9.2332,0,0,1-1.13817-.31807,6.072,6.072,0,0,1-3.26054-2.49122,5.52017,5.52017,0,0,1-.45338-.91785,6.82783,6.82783,0,0,1-.42409-2.66832A8.1637,8.1637,0,0,1,246.51619,188.02873Zm-18.58377,19.7302h.00094c.27959.00709.61112-.00047.936-.00661.21536-.00378.43071-.0085.6659-.01842.26353-.01133.54689-.02975.834-.04888.25408-.017.50532-.03376.77735-.05738.306-.02621.63-.06068.95682-.09563.2928-.03141.58089-.06163.88881-.09989.34475-.043.70651-.09492,1.07016-.14664.32492-.04628.64417-.09114.98232-.14475.3797-.06045.77452-.13082,1.17122-.20071.35609-.06258.70652-.12326,1.07583-.1941.409-.0784.83214-.1686,1.25529-.25692.38348-.08028.7613-.15774,1.15517-.24652.43921-.09871.89164-.21016,1.34313-.31973.40427-.09823.80192-.19221,1.21562-.29942.46094-.119.9351-.25313,1.40736-.38371.42694-.11784.84725-.23118,1.28174-.35893.48172-.14121.97382-.29871,1.464-.45172.44016-.13791.87559-.26991,1.3233-.418.50627-.16695,1.02105-.35184,1.53393-.53225.44677-.15679.88881-.3065,1.3403-.47321.52327-.19363,1.05316-.40663,1.5821-.61395.45243-.17757.90109-.34665,1.3573-.53461.53933-.222,1.08244-.46566,1.6246-.70274.45244-.19788.902-.38537,1.35636-.59364.55539-.255,1.11267-.53319,1.66994-.80427.44488-.2163.88787-.421,1.33275-.64772.58372-.29729,1.1665-.62127,1.74928-.93722.41748-.22621.83591-.43921,1.25246-.67534.647-.36648,1.28929-.762,1.93252-1.15234.34948-.21228.70273-.40945,1.05032-.62858q1.43665-.90534,2.84967-1.89475c.03023-.02125.0614-.03943.09162-.06045q1.4749-1.03639,2.89973-2.13678,1.42389-1.09838,2.79206-2.24729a97.05766,97.05766,0,0,0,7.6158-7.13881,86.68257,86.68257,0,0,0,10.84707-13.67029q.38112-.61614.72163-1.20087c1.583-2.72605,2.4558-4.90274,2.46524-6.15921a28.001,28.001,0,0,0-.1464-3.3753,17.40268,17.40268,0,0,0-.73863-3.42548,44.47881,44.47881,0,0,0-3.25488-7.12193c-1.84751-3.465-6.54942-8.34924-10.3304-11.97839-2.94129-2.82275-5.32719-4.88657-5.381-4.93356l2.51247-2.91295v-.00024c.06611.05691.31831.2751.716.62623.39765.35137.9417.83568,1.5906,1.42578.97287.88479,2.18282,2.00667,3.4929,3.2714.43637.42162.88408.85906,1.33746,1.3089,1.36108,1.34927,2.77694,2.81,4.11063,4.28773.88786.98515,1.74078,1.97786,2.5153,2.95026a30.03934,30.03934,0,0,1,2.61354,3.76729c.07084.12491.15207.25431.21724.37663,3.049,5.71918,4.31276,8.88,4.55078,13.62236.034.67747.04723,1.38717.04156,2.14126a9.75331,9.75331,0,0,1-.63284,3.04189,27.45392,27.45392,0,0,1-1.76817,3.88724c-3.05275,5.64857-8.75586,12.96472-15.61226,19.59821q-1.28646,1.24377-2.623,2.451a88.571,88.571,0,0,1-8.34027,6.69358,86.10689,86.10689,0,0,1-28.48442,12.68419c-1.45742.35869-2.85722.66437-4.18335.921-.76508.14818-1.498.27534-2.21116.39175a47.914,47.914,0,0,1-7.33717.70829c-.222,0-.4326-.004-.63379-.00992l-.00944-.00024Zm-2.18,20.88727a42.80613,42.80613,0,0,0,3.78759,9.10723c.09068.15738.19174.35692.2862.52811a91.61824,91.61824,0,0,1,6.573,16.57864c.35137,1.20866.67157,2.409.94926,3.57909a29.95156,29.95156,0,0,1,1.04844,9.116H238.396l-3.82727-.38348a18.82229,18.82229,0,0,0-.306-4.70923c-.20308-1.21881-.48549-2.52912-.82836-3.88807s-.74618-2.76655-1.18823-4.18041c-.886-2.82735-1.93063-5.679-2.97246-8.21322a58.2467,58.2467,0,0,0-3.066-6.505c-3.65536-6.33454-6.14894-15.48805-5.93358-21.7664h.00094l3.84522.13271A35.3487,35.3487,0,0,0,225.75243,228.6462Zm-31.846-88.79762a28.59741,28.59741,0,0,1,2.22061-5.92143c.34381-.71253.71407-1.43735,1.10416-2.16807.5195-.97429,1.07394-1.95944,1.64822-2.94129.68479-1.17122,1.39886-2.33418,2.11388-3.47117,1.68222-2.674,3.37672-5.18929,4.74819-7.22052.66117-.97925,1.27134-1.883,1.73794-2.59807.15585-.23837.2947-.45574.4156-.64783.16057-.256.2862-.46755.36932-.62387.3542-.66188.9927-1.72094,1.79367-3.048.04251-.06942.0784-.12987.1209-.20071.4581-.75752.99838-1.65625,1.56132-2.60244,2.64093-4.43626,6.05732-10.47138,6.83373-13.96027l3.75454.834v.00024h.00094c-.613,2.7571-2.45768,6.54588-4.46483,10.19108-1.52353,2.76561-3.1368,5.45046-4.393,7.5275-.5195.86094-.95871,1.58918-1.30346,2.17716-.20686.35278-.38821.66707-.50911.89494-.10673.19977-.24747.43874-.41937.7162-.38915.63024-.953,1.4782-1.63216,2.4872-.21819.32351-.43355.64465-.67629,1.00452-.82269,1.21845-1.81162,2.683-2.85817,4.2823q-.52422.79979-1.06261,1.64019-.43071.67084-.8633,1.36037c-2.87706,4.59021-5.71634,9.66639-6.4852,13.122a19.72521,19.72521,0,0,0-.39387,4.59612q.01558.8168.07745,1.65483c.08123,1.1155.21819,2.25131.39671,3.38192a60.31073,60.31073,0,0,0,1.42908,6.52108c.6234,2.27162,1.294,4.26317,1.83052,5.68766.17851.47486.34286.88668.48549,1.22494l-3.54391,1.49284v-.00023l-.00094.00023a66.09765,66.09765,0,0,1-2.98285-9.32069C193.69671,150.74193,192.84569,144.6277,193.9064,139.84858Zm-2.043,95.82427c.04817-.042.09823-.08926.1464-.13176.43543-.3816.87842-.792,1.32613-1.22153.13129-.12586.26353-.25313.39576-.38324.494-.4862.99365-.99177,1.50465-1.53865l.01511-.01559c3.95384-4.2457,6.91591-7.92656,9.29425-10.88438q.588-.73071,1.12778-1.39886a52.2988,52.2988,0,0,1,3.78287-4.33212,12.29329,12.29329,0,0,1,1.8938-1.54573c.18607-.12.37026-.24369.55633-.34287h.00095l1.80973,3.39372v.00024a6.2289,6.2289,0,0,0-1.19673.8881q-.32586.29469-.67818.65834c-.47038.48361-.97854,1.055-1.5292,1.70206-.82458.971-1.74362,2.11317-2.76844,3.38782-.70935.88172-1.48954,1.84539-2.31129,2.85014-.99082,1.211-2.06664,2.50444-3.253,3.8791s-2.48319,2.83078-3.91417,4.367q-1.17594,1.26237-2.34056,2.36111-1.02011.96165-2.03453,1.79934c-4.734,3.9098-9.40949,5.80489-14.37586,5.80489a22.84986,22.84986,0,0,1-6.94424-1.14856,18.3364,18.3364,0,0,1-4.24-2.07514,45.97486,45.97486,0,0,1-6.34068-5.07642c-2.06193-1.91859-4.04262-3.96446-5.858-5.83819-1.31858-1.36226-2.50208-2.57481-3.51746-3.53729a19.32087,19.32087,0,0,0-1.64539-1.43853,38.08078,38.08078,0,0,0-4.23247-2.78225,36.31163,36.31163,0,0,0-8.86071-3.2354,21.12387,21.12387,0,0,1-4.649-1.93347c.60167-2.04976.29847-.99,1.18067-3.74639a18.99271,18.99271,0,0,0,4.43083,1.95531,46.64623,46.64623,0,0,1,7.87177,2.64872c.698.31985,1.3573.65409,1.9977,1.00877.715.3967,1.40831.83166,2.10349,1.2874.7953.52233,1.59343,1.07583,2.43974,1.699.36648.27037.76224.5986,1.18539.97429.31737.28183.64984.59069.99554.92258,1.039.99554,2.20361,2.19817,3.46457,3.50093,4.29953,4.43979,10.18683,10.51978,14.83963,11.99893l.02361.00708c.40709.12893.81986.24747,1.23545.35845.13035.03472.26259.0647.39388.09729q.459.11406.92564.2078c.15113.03046.3032.05927.45527.08595.324.05715.65173.10248.98232.14168.1294.01512.25691.03448.38631.04676.45622.04274.91809.06848,1.38847.06989.35232.001.70935-.01275,1.07017-.038.09162-.00638.18418-.01583.2758-.02409q.469-.04215.94926-.11665c.07273-.01157.14546-.01984.21913-.03259q.56956-.09812,1.15423-.24817c.08784-.02244.17757-.04959.26636-.07368q.493-.1353.99743-.31028c.08973-.03093.17946-.05927.26919-.09233q.60639-.22173,1.22885-.5032c.08312-.03778.16718-.08076.2503-.12q.52846-.24935,1.07016-.54641c.10484-.05715.20874-.1124.31453-.17238.43165-.24558.869-.511,1.31291-.80475.07178-.04722.14546-.10082.21724-.14923q.57948-.391,1.17406-.84017c.119-.089.23708-.17757.35609-.27014C190.91694,236.46721,191.38543,236.0875,191.86337,235.67285Zm-16.83072-9.24136.02456-.02314.00283-.00189a7.02773,7.02773,0,0,1,1.26852-.91336c.154-.08832.33059-.14735.4921-.22575a8.22133,8.22133,0,0,1,.99743-.42929c.20875-.06966.43449-.11.65268-.16529a9.598,9.598,0,0,1,1.00688-.2163c.2418-.03424.494-.04251.7424-.05951.24369-.017.47888-.05856.7273-.05856.19552,0,.391.00519.58844.01606l.00189-.00024a9.48455,9.48455,0,0,1,3.10281.69742c.069.02739.1294.06128.19646.09021a7.08334,7.08334,0,0,1,.9077.47522c.16152.09953.30509.20567.45055.31524.08973.069.19929.12609.28336.19859a4.987,4.987,0,0,1,.49494.42763,4.54816,4.54816,0,0,1,.493.7417c.034.05833.04912.12681.07935.18667.04817.09162.08123.19.12279.285a5.42005,5.42005,0,0,1,.22385.52127c.03684.11925.05951.24475.08879.3673.00472.02126.01039.04156.01511.06293a5.89382,5.89382,0,0,1,.15018,1.00983v.00366a6.05911,6.05911,0,0,1-.12373,1.53724l-.00095.01464a7.4979,7.4979,0,0,1-1.0796,2.5597,8.35581,8.35581,0,0,1-.885,1.10321,8.80666,8.80666,0,0,1-.97759.90818,8.915,8.915,0,0,1-.77925.507c-.05856.03719-.11428.07674-.17379.11275-.136.08123-.255.181-.39482.2568-.15868.08572-.31264.17828-.47793.2555l-.01134.005-.05667.02527a20.90182,20.90182,0,0,1-2.40668.83356,14.225,14.225,0,0,1-3.7177.57664c-.15868,0-.31264-.02208-.46849-.03259-.11335-.00413-.23991-.013-.37876-.02633-.05762-.00649-.11712-.00472-.17474-.01216-.03117-.004-.05856-.01381-.08973-.01818a5.40573,5.40573,0,0,1-.60073-.12232,4.939,4.939,0,0,1-.85764-.29505c-.06045-.02727-.12751-.04262-.18607-.07261a3.75524,3.75524,0,0,1-1.36769-1.162l-.04723-.04675-.08123-.16624a3.9905,3.9905,0,0,1-.22858-.38018q-.2111-.42806-.36648-.83922C170.65189,231.14556,173.0274,228.27511,175.03265,226.43149Zm-43.44306-32.19456c.18136-.171.35893-.33909.53934-.50391a12.01048,12.01048,0,0,1,1.141-.94028,10.97347,10.97347,0,0,1,4.62351-1.77668c2.13371-.39718,4.89081-4.74677,6.22072-7.8.51194-2.20372,1.05033-4.18879,1.60949-6.00442q.27912-.90783.56578-1.76109a53.91163,53.91163,0,0,1,2.23006-5.65684c3.34744-7.186,7.21248-10.41683,11.23149-13.75435.48077-.39931.98232-.83686,1.47348-1.2527.46471-.39293.919-.76295,1.3913-1.18327a20.85786,20.85786,0,0,0,3.87733-4.48466,46.61078,46.61078,0,0,0,2.62959-4.95174c.04251-.08713.08123-.16612.12374-.25455.119-.24558.24558-.50675.36837-.76035.35325-.72966.71973-1.482,1.12777-2.28767.27581-.54288.56673-1.10464.87842-1.68742.62434-1.16532,1.32991-2.41471,2.1526-3.76493q.4633-.75976.9776-1.56285c1.03144-1.60725,2.22816-3.35075,3.64214-5.25435a54.93093,54.93093,0,0,0,4.03789-6.28212c.4326-.78656.84914-1.57312,1.227-2.3578q.418-.86673.79058-1.72874.46613-1.07694.85858-2.14174c1.83429-4.96484,2.46713-9.67241,1.68789-13.48657a11.65519,11.65519,0,0,0-1.79179-4.34629,10.27771,10.27771,0,0,0-3.31721-3.04519c-.75469-.44051-1.447-.84052-2.08838-1.20724-1.92307-1.09991-3.38333-1.89946-4.66129-2.58886q-.62622-.3372-1.20712-.64866c-1.04088-.55728-1.99108-1.06638-3.0263-1.64963-.4137-.2333-.84063-.47841-1.29307-.74336-.45149-.26494-.92848-.54948-1.44136-.86165-.51194-.31217-1.06072-.6522-1.65578-1.02718-.29847-.18773-.60733-.38419-.93037-.59034-1.29023-.82529-2.7911-1.80784-4.59139-3.01024l2.13654-3.19868c4.40438,2.94153,6.92157,4.50828,9.009,5.70832,1.04371.6,1.97975,1.10817,2.99135,1.65057.20213.10863.4071.21843.61678.33059,1.18823.63662,2.55687,1.36958,4.34865,2.37457,1.07489.60309,2.30184,1.30393,3.73376,2.14032a14.48609,14.48609,0,0,1,5.483,5.781,15.90494,15.90494,0,0,1,1.45459,4.16164,20.41173,20.41173,0,0,1,.374,3.03834c.03022.591.0425,1.19082.02739,1.80194q-.02126.84654-.09918,1.71717a32.48635,32.48635,0,0,1-.97287,5.39071,51.5398,51.5398,0,0,1-8.61135,17.11337,78.86666,78.86666,0,0,0-6.77706,10.69665c-.76129,1.45151-1.40641,2.77953-1.993,3.9961a51.73631,51.73631,0,0,1-3.01119,5.65553,24.77953,24.77953,0,0,1-4.53,5.244c-.50438.44724-1.0031.87594-1.49709,1.29307-.493.41725-.98138.82293-1.465,1.22436-3.55713,2.95486-6.6656,5.53617-9.40476,10.70751-.391.73875-.77546,1.53039-1.15139,2.38354q-.41088.93084-.80947,1.96228a75.44246,75.44246,0,0,0-3.01968,10.19959l-.1039.3183c-.12374.29-.34759.79861-.66307,1.43948a26.5181,26.5181,0,0,1-3.62608,5.60984,11.21424,11.21424,0,0,1-3.05274,2.53963,6.22906,6.22906,0,0,1-1.78424.639,6.54911,6.54911,0,0,0-3.73659,1.65955c-.1974.17639-.39859.36318-.62245.57475-.41276.39033-.90108.834-1.47253,1.30819-.14168.11759-.2588.22621-.4156.349l-2.37079-3.031A20.97788,20.97788,0,0,0,131.58959,194.23693ZM74.277,252.78834h-.001a17.61415,17.61415,0,0,1-7.45145-1.61327,19.26892,19.26892,0,0,1-3.17554-1.83476,23.64,23.64,0,0,1-2.38968-1.95992,39.34751,39.34751,0,0,1-6.70055-8.59623l3.29644-1.98353v-.00024l.017.02621c.54689.90959,1.09661,1.74645,1.64727,2.54907.136.19954.27392.39742.41088.5901.55444.78113,1.11172,1.525,1.67466,2.2003.04156.05054.085.09375.12657.14381.53083.62835,1.06638,1.19956,1.60572,1.73559.1379.13672.2758.27391.41465.40473a20.06408,20.06408,0,0,0,1.7455,1.48883c.07179.05384.14546.09728.21819.14971a16.11345,16.11345,0,0,0,1.63783,1.04088c.14168.07887.28336.161.42693.23471a14.15822,14.15822,0,0,0,1.8683.80758c.103.03519.20968.059.31264.09186a13.70737,13.70737,0,0,0,1.72945.42433c.14829.02692.29658.05809.44771.08029a14.94072,14.94072,0,0,0,2.04775.158c.2777.00213.562-.01157.84442-.02385.222-.00968.4411-.0118.6659-.03022.3202-.02621.64795-.07273.97476-.11665.21252-.02834.42127-.04723.63756-.08312.36554-.06092.74241-.14452,1.11834-.22669.18607-.04062.36648-.07037.55538-.11618q.83451-.20331,1.70017-.47345l.03589-.00968,1.14951,3.67189a29.412,29.412,0,0,1-3.91039.95044A22.22238,22.22238,0,0,1,74.277,252.78834Z"/>
        <path class="cls-1" d="M250.8469,191.093a2.40332,2.40332,0,0,0,.21535.15349,2.85519,2.85519,0,0,0,.52706.3006c.10389.0451.21535.08524.33058.1235a5.34993,5.34993,0,0,0,.70368.178c.12657.02409.24842.05124.38254.069a9.31369,9.31369,0,0,0,1.0286.07131c.08879.00189.16719.01228.25881.012a14.52443,14.52443,0,0,0,1.80028-.13672c.1483-.01937.30037-.04274.45244-.06659a19.73569,19.73569,0,0,0,2.044-.42221h.00094c.17569-.04652.38821-.09918.6319-.158.23708-.05773.51855-.12834.817-.20638a15.98343,15.98343,0,0,0,2.32073-.7705q.33012-.1438.63662-.30981a4.60355,4.60355,0,0,0,1.05788-.76224c.13129-.13129.22858-.264.34-.39671a5.0446,5.0446,0,0,0,.44487-.60356,1.96006,1.96006,0,0,0,.38632-1.64586,1.81031,1.81031,0,0,0-.70274-.75374c-1.11361-.74382-3.50612-1.39555-7.61769-1.39555a10.7756,10.7756,0,0,0-1.89947.15868,7.58694,7.58694,0,0,0-1.61988.46944,5.20131,5.20131,0,0,0-2.317,1.83807,4.66066,4.66066,0,0,0-.8208,2.898,2.68969,2.68969,0,0,0,.15773.75267A1.62463,1.62463,0,0,0,250.8469,191.093Z"/>
      </g>
    </g>
  </g>
</svg>
