<?xml version="1.0" standalone="no"?>
<!DOCTYPE svg PUBLIC "-//W3C//DTD SVG 20010904//EN"
 "http://www.w3.org/TR/2001/REC-SVG-20010904/DTD/svg10.dtd">
<svg version="1.0" xmlns="http://www.w3.org/2000/svg"
 width="1024.000000pt" height="1024.000000pt" viewBox="0 0 1024.000000 1024.000000"
 preserveAspectRatio="xMidYMid meet">
<metadata>
Created by potrace 1.11, written by Peter Selinger 2001-2013
</metadata>
<g transform="translate(0.000000,1024.000000) scale(0.100000,-0.100000)"
fill="#000000" stroke="none">
<path d="M5319 9756 c-2 -2 -47 -6 -100 -10 -53 -4 -107 -9 -120 -11 -13 -2
-49 -6 -79 -9 -30 -4 -66 -8 -80 -10 -14 -3 -59 -10 -100 -16 -87 -14 -89 -15
-195 -35 -44 -9 -91 -20 -105 -25 -14 -5 -38 -11 -55 -14 -92 -13 -512 -150
-655 -213 -30 -13 -68 -29 -85 -36 -39 -16 -405 -196 -405 -199 0 -2 42 -4 93
-5 101 -2 272 -11 303 -17 10 -2 51 -7 89 -11 39 -4 77 -8 85 -10 8 -2 35 -6
60 -9 53 -7 79 -12 185 -32 44 -8 91 -18 105 -20 74 -14 345 -89 483 -134 149
-48 161 -51 210 -41 60 12 99 17 182 26 33 4 71 8 85 11 51 8 259 18 385 17
243 -1 477 -23 717 -67 240 -45 575 -149 813 -254 88 -39 345 -170 376 -193
15 -10 30 -19 34 -19 13 0 263 -169 370 -250 61 -46 145 -101 189 -122 218
-107 446 -309 652 -578 41 -54 52 -78 63 -135 8 -41 25 -87 41 -110 219 -325
407 -760 510 -1180 46 -187 69 -311 85 -460 3 -27 8 -64 10 -80 23 -144 23
-618 0 -790 -2 -16 -11 -84 -20 -150 -9 -66 -20 -136 -25 -155 -5 -19 -11 -50
-14 -67 -3 -18 -9 -48 -12 -65 -20 -117 -116 -429 -182 -594 -97 -242 -236
-506 -385 -729 -55 -82 -196 -274 -222 -301 -5 -6 -34 -40 -64 -75 -69 -81
-347 -358 -426 -425 -486 -409 -1036 -686 -1646 -828 -80 -19 -167 -37 -193
-40 -26 -4 -68 -11 -94 -15 -26 -5 -76 -12 -112 -16 -36 -4 -76 -9 -90 -10
-138 -18 -475 -24 -645 -11 -167 13 -179 14 -319 35 -737 113 -1406 423 -1973
914 -102 89 -302 289 -385 386 -21 24 -43 41 -50 38 -7 -3 -44 -28 -81 -56
-37 -28 -72 -51 -77 -51 -4 0 -10 -3 -12 -8 -4 -9 -140 -101 -313 -212 -71
-46 -132 -85 -134 -86 -4 -4 53 -77 118 -149 50 -55 380 -385 427 -426 197
-172 534 -414 735 -526 272 -153 455 -239 723 -339 120 -45 382 -127 466 -145
25 -6 61 -14 80 -18 19 -5 58 -14 85 -20 28 -6 61 -13 75 -16 53 -11 199 -35
280 -45 47 -6 100 -13 118 -15 138 -20 721 -28 882 -12 183 18 175 17 364 47
313 49 649 143 976 271 136 54 520 240 619 301 254 157 498 332 686 493 226
193 528 515 680 725 21 30 42 57 45 60 8 8 43 58 118 172 318 478 545 1014
668 1578 14 63 27 130 30 149 3 18 8 43 10 55 2 11 7 41 10 66 3 25 8 53 10
64 2 10 6 44 10 75 3 31 8 70 10 86 13 93 19 260 19 495 0 233 -10 483 -19
499 -2 3 -7 38 -11 76 -10 91 -10 95 -18 130 -4 17 -9 50 -12 75 -31 233 -155
668 -273 960 -110 272 -300 629 -449 843 -88 126 -108 155 -132 187 -14 19
-28 37 -31 40 -3 3 -18 23 -35 45 -16 22 -39 51 -51 65 -12 14 -54 63 -94 110
-122 144 -321 343 -480 480 -41 36 -77 68 -80 71 -3 3 -63 50 -135 103 -71 54
-137 103 -145 110 -56 43 -308 201 -435 271 -331 184 -749 349 -1115 439 -130
32 -383 81 -470 92 -36 4 -67 8 -70 9 -7 2 -147 18 -195 22 -52 5 -662 13
-666 9z"/>
<path d="M2460 9140 c-55 -10 -154 -43 -240 -83 -172 -77 -690 -249 -855 -283
-75 -16 -166 -25 -269 -28 -115 -3 -120 -4 -143 -30 -21 -24 -22 -30 -10 -58
25 -62 162 -132 322 -164 77 -16 133 -19 305 -19 107 0 226 4 265 8 126 14
170 19 190 22 11 1 63 24 115 50 99 48 181 67 195 45 4 -7 2 -30 -5 -51 -10
-29 -19 -39 -34 -39 -22 0 -149 -55 -184 -80 -18 -13 -21 -29 -27 -140 -7
-144 -13 -232 -19 -310 -16 -184 -20 -241 -20 -295 1 -49 27 -234 49 -347 3
-13 7 -41 10 -63 3 -22 14 -80 25 -130 10 -49 21 -101 24 -115 11 -61 27 -114
75 -250 81 -231 95 -284 107 -425 3 -44 8 -89 10 -100 2 -11 6 -46 9 -78 10
-102 54 -379 75 -477 12 -52 23 -105 26 -117 2 -12 12 -41 23 -65 23 -55 45
-132 66 -233 38 -184 72 -316 95 -370 31 -74 96 -165 148 -207 25 -21 48 -35
50 -33 2 2 -4 29 -13 59 -14 45 -22 56 -39 56 -33 0 -82 35 -94 68 -8 23 -6
38 9 72 10 23 17 45 15 49 -10 15 11 30 52 36 31 4 42 2 43 -7 4 -30 -3 -82
-12 -99 -10 -20 -4 -26 30 -25 27 1 87 -51 83 -71 -2 -7 5 -38 14 -70 9 -32
17 -70 16 -85 -1 -24 5 -29 41 -39 57 -16 117 -19 147 -6 44 20 77 50 174 164
53 62 136 154 186 205 103 107 123 141 121 212 -1 48 -3 66 -16 126 -13 62
-16 79 -22 150 -11 114 -8 277 5 297 5 7 22 10 48 6 l40 -5 0 -152 c0 -103 6
-179 18 -241 27 -136 30 -215 12 -277 -16 -55 -22 -62 -180 -228 -45 -47 -92
-99 -106 -115 -14 -17 -47 -57 -75 -90 -105 -125 -163 -159 -265 -157 -36 0
-77 5 -93 11 -15 6 -27 7 -28 3 0 -4 -2 -16 -4 -27 -2 -11 -7 -39 -10 -63 -18
-135 -104 -240 -185 -228 -108 17 -174 155 -174 369 0 64 5 122 10 127 6 6 23
-8 46 -39 32 -43 36 -58 41 -123 6 -88 31 -184 57 -216 34 -42 67 -13 104 91
3 10 9 47 12 82 l6 63 -48 25 c-70 36 -136 98 -187 175 -57 86 -89 168 -126
321 -16 68 -32 125 -34 127 -8 9 -173 -202 -282 -361 -73 -107 -128 -196 -123
-200 2 -2 44 -6 93 -9 93 -7 138 -12 190 -21 17 -3 53 -7 80 -10 82 -9 97 -14
91 -31 -3 -9 -6 -29 -6 -46 l0 -30 -67 7 c-37 4 -76 8 -87 10 -12 2 -41 6 -66
9 -25 3 -67 9 -95 12 -105 14 -259 11 -300 -4 -133 -51 -318 -208 -427 -362
-57 -82 -116 -199 -113 -225 2 -11 6 -63 9 -115 14 -213 37 -344 66 -380 11
-14 37 -57 56 -96 31 -63 35 -82 35 -145 1 -82 -11 -148 -38 -225 l-18 -51
-44 18 c-37 17 -42 22 -36 42 58 191 54 268 -20 380 -64 95 -77 159 -99 472
-12 166 -14 171 -105 354 -49 97 -104 214 -124 261 -35 83 -89 265 -101 344
-4 21 -8 42 -11 46 -9 14 -19 166 -19 275 1 97 7 189 19 250 2 11 4 28 4 37 1
26 26 45 69 52 41 6 85 25 276 115 128 62 130 62 389 76 148 8 200 19 271 59
117 67 168 135 172 229 2 75 -44 330 -82 447 -24 72 -36 93 -78 135 -49 49
-435 315 -456 315 -6 0 5 -28 24 -62 44 -81 97 -210 153 -373 42 -124 82 -202
110 -212 19 -7 16 -20 -14 -59 l-26 -35 -30 28 c-52 50 -109 149 -122 213 -21
105 -170 440 -218 492 -23 24 -29 26 -55 17 -17 -6 -99 -63 -184 -127 -84 -64
-222 -162 -305 -219 -129 -87 -175 -126 -298 -250 -81 -82 -165 -177 -189
-213 -50 -76 -99 -192 -115 -270 -11 -54 -14 -90 -26 -312 -3 -58 -8 -117 -10
-130 -4 -23 -14 -111 -20 -178 -10 -107 -17 -161 -30 -218 -8 -34 -17 -74 -20
-90 -3 -15 -7 -40 -10 -57 -34 -183 -54 -301 -60 -355 -4 -36 -9 -73 -11 -84
-19 -100 -27 -642 -11 -756 4 -30 12 -93 17 -140 14 -113 19 -157 26 -205 11
-79 13 -91 19 -146 3 -31 7 -65 9 -75 2 -11 7 -48 11 -84 3 -36 8 -72 10 -80
2 -8 7 -39 10 -69 9 -74 13 -81 70 -132 218 -192 493 -339 686 -366 103 -14
230 -8 288 15 l54 21 33 -27 c18 -15 33 -29 33 -32 2 -12 -71 -50 -124 -65
-60 -18 -195 -23 -280 -11 -200 28 -414 128 -638 298 -88 68 -93 63 -45 -45
26 -60 76 -233 94 -326 25 -128 119 -188 327 -209 96 -9 408 -8 477 2 134 20
326 80 465 147 141 67 433 240 615 363 41 28 80 53 85 56 6 3 65 42 131 88
l121 83 38 102 c91 247 214 492 381 759 90 144 227 334 298 412 35 40 35 40
56 21 44 -40 45 -54 7 -94 -77 -81 -269 -356 -352 -506 -16 -27 -35 -58 -43
-67 -8 -10 -12 -18 -8 -18 3 0 -4 -17 -17 -37 -50 -81 -217 -434 -217 -459 0
-14 105 72 194 161 172 169 294 339 437 607 155 291 190 323 307 275 125 -50
339 -226 637 -523 232 -230 290 -281 425 -372 58 -39 135 -98 173 -132 118
-109 238 -294 358 -555 19 -41 36 -123 34 -161 -2 -21 -6 -79 -10 -129 -4 -49
-8 -180 -9 -289 -2 -199 -2 -200 24 -250 18 -32 36 -52 51 -57 72 -19 603 -15
731 6 13 2 46 6 73 10 696 87 1353 369 1910 821 381 308 710 706 950 1147 39
72 40 87 20 252 -2 17 -7 64 -10 105 -3 41 -7 86 -10 100 -2 14 -6 61 -10 104
-4 43 -9 88 -11 100 -3 12 -4 64 -3 116 5 352 5 349 -21 367 -28 18 -452 442
-545 544 -76 83 -190 210 -241 269 -21 25 -41 47 -44 50 -3 3 -39 45 -80 94
l-74 89 34 28 c19 16 37 29 40 29 4 0 31 -30 60 -66 30 -37 59 -72 65 -78 6
-6 44 -49 84 -96 237 -276 660 -708 762 -779 99 -68 329 -201 348 -201 18 0
60 260 77 485 14 170 7 602 -11 695 -1 8 -6 38 -9 65 -13 105 -18 134 -42 255
-66 334 -170 639 -325 950 -90 180 -101 198 -95 155 6 -35 13 -89 22 -160 15
-123 11 -319 -7 -410 -37 -177 -91 -308 -159 -386 l-39 -44 -30 33 c-17 18
-31 36 -31 39 0 3 13 21 30 39 16 19 39 53 51 76 22 43 66 174 75 223 3 17 9
48 14 70 10 40 7 347 -3 375 -3 8 -8 38 -11 65 -5 42 -32 204 -51 309 -11 57
-36 156 -45 180 -5 14 -46 69 -91 123 -267 319 -485 477 -749 544 -113 28
-364 20 -613 -22 -186 -31 -224 -50 -443 -225 -256 -205 -497 -432 -529 -500
-33 -70 -26 -167 16 -225 10 -13 7 -23 -13 -53 l-25 -36 -26 20 c-33 26 -65
93 -70 147 -6 60 10 147 34 195 27 53 260 287 400 403 14 11 49 41 79 66 30
25 81 65 113 89 32 23 55 45 53 48 -3 2 -40 6 -83 8 -43 1 -93 5 -110 8 -84
16 -315 99 -462 168 -111 51 -280 137 -321 163 -22 14 -42 25 -45 25 -3 0 -38
21 -78 47 -299 195 -587 336 -967 469 -68 25 -133 46 -145 49 -11 2 -51 13
-90 25 -83 24 -331 85 -395 96 -25 4 -47 8 -50 9 -3 1 -25 5 -50 9 -25 5 -52
10 -61 11 -9 2 -40 6 -70 10 -30 4 -56 8 -59 10 -3 1 -45 6 -93 10 -48 3 -98
8 -110 11 -12 2 -103 6 -202 9 l-180 5 25 -20 c14 -11 38 -28 55 -37 149 -80
227 -215 226 -388 -1 -44 -3 -91 -5 -105 -13 -73 -19 -155 -20 -237 -1 -87 -3
-94 -28 -120 -33 -32 -43 -26 -62 38 -14 47 -13 121 5 264 16 129 17 193 4
250 -22 95 -56 138 -171 215 -43 29 -99 70 -124 90 -79 64 -97 71 -143 65 -23
-4 -59 -16 -81 -28 -33 -19 -44 -34 -69 -97 -45 -109 -43 -181 5 -275 37 -72
111 -174 204 -281 52 -60 53 -61 36 -85 -37 -54 -41 -55 -73 -21 -75 80 -210
259 -242 320 -75 145 -81 205 -33 338 14 39 26 76 26 82 0 17 -96 73 -152 88
-57 15 -126 16 -198 4z m795 -371 c49 -43 72 -78 80 -122 7 -36 6 -37 -21 -37
-49 0 -69 10 -82 40 -7 15 -35 43 -62 62 -27 18 -50 36 -50 41 0 4 10 23 22
41 22 33 24 34 50 20 15 -8 44 -28 63 -45z m-410 -243 c8 -13 13 -31 9 -40
-11 -28 -237 -148 -324 -171 -84 -22 -162 1 -210 62 -27 34 -26 38 16 67 l36
24 29 -33 c46 -52 91 -44 259 43 74 39 143 71 152 71 10 1 24 -10 33 -23z
m437 -18 l27 -19 -20 -39 c-11 -22 -18 -44 -14 -50 12 -19 84 -60 105 -60 17
0 20 -7 20 -50 0 -47 -1 -50 -26 -50 -56 0 -192 93 -195 133 0 7 -2 21 -4 31
-4 21 16 76 41 114 15 23 19 23 66 -10z m-303 -246 c42 -45 149 -129 207 -163
l41 -24 -18 -43 -18 -43 -43 22 c-58 29 -182 125 -241 187 l-49 49 34 27 c18
14 37 26 42 26 6 0 26 -17 45 -38z m1391 -657 c52 -34 167 -101 255 -149 192
-106 226 -130 275 -195 60 -80 75 -136 74 -276 0 -100 -5 -135 -27 -210 -32
-107 -108 -265 -170 -355 -146 -210 -190 -281 -265 -430 -111 -217 -131 -242
-302 -387 -136 -115 -193 -185 -249 -307 -26 -56 -76 -196 -86 -242 -25 -110
-46 -159 -110 -250 -44 -61 -105 -110 -147 -118 -42 -7 -92 -33 -127 -65 -19
-17 -37 -31 -40 -31 -3 0 -18 15 -33 34 l-27 34 45 42 c46 42 120 80 156 80
24 0 114 91 124 124 4 12 12 28 20 36 7 8 27 66 43 128 57 208 131 363 228
475 27 30 98 98 159 151 61 52 126 113 144 136 18 22 67 110 110 194 85 167
136 253 215 361 229 313 306 615 204 794 -37 63 -72 89 -280 203 -142 78 -273
157 -336 203 l-23 16 26 39 c16 23 31 37 38 33 6 -4 54 -35 106 -68z m-1366
-182 c-1 -60 -4 -118 -7 -131 -9 -36 -56 -116 -93 -158 -30 -33 -34 -45 -32
-81 2 -24 1 -43 -2 -43 -3 -1 -24 -5 -47 -9 -39 -8 -42 -6 -48 16 -3 14 -28
46 -55 73 -26 26 -58 66 -69 88 -50 98 -7 202 109 263 23 12 228 87 241 88 3
1 5 -47 3 -106z m-416 -9 c2 -1 -6 -20 -17 -43 -34 -66 -29 -97 46 -261 19
-41 37 -92 40 -113 l5 -39 -43 7 c-24 4 -47 10 -50 14 -3 3 -18 35 -33 71 -15
36 -34 79 -41 95 -28 63 -47 149 -42 186 3 22 17 59 32 84 l26 46 37 -22 c20
-13 38 -24 40 -25z m569 -116 c-8 -74 -22 -116 -56 -166 l-29 -44 -34 31 -35
31 28 56 c17 33 29 73 29 95 0 40 3 42 69 47 l33 3 -5 -53z m2633 -30 c0 -19
-54 -146 -93 -218 -69 -128 -197 -339 -287 -475 -93 -138 -185 -294 -214 -360
-32 -71 -35 -79 -45 -120 -10 -37 -8 -226 2 -270 35 -145 50 -201 70 -261 l25
-70 -40 -17 c-21 -10 -43 -15 -48 -12 -5 3 -23 47 -39 98 -73 228 -95 432 -61
563 29 111 118 278 278 517 76 112 182 285 182 294 0 4 6 14 14 22 19 23 130
237 150 292 l18 46 44 -10 c24 -6 44 -14 44 -19z m1639 -995 c174 -174 219
-229 281 -347 94 -180 120 -331 77 -455 -49 -139 -221 -375 -419 -573 -142
-142 -265 -239 -433 -345 -63 -40 -265 -136 -360 -171 -123 -46 -310 -99 -376
-108 -24 -3 -50 -7 -58 -10 -8 -2 -45 -7 -83 -11 -124 -11 -113 -14 -113 41
l0 50 38 2 c326 16 738 166 1025 371 125 90 168 127 302 262 136 136 208 222
289 343 82 123 111 192 111 266 0 90 -15 142 -75 267 -66 137 -170 261 -379
453 -36 32 -55 57 -50 65 12 21 47 57 56 57 5 0 80 -71 167 -157z m-2058
-1082 c0 -9 2 -25 4 -36 2 -11 6 -40 8 -65 16 -133 100 -358 194 -513 19 -32
33 -60 31 -62 -2 -2 -20 -15 -39 -28 l-36 -25 -31 52 c-118 201 -201 423 -218
590 -4 34 -8 68 -9 76 -3 20 6 25 54 26 31 1 41 -3 42 -15z m-2410 -45 c84
-56 128 -149 134 -281 3 -49 1 -95 -3 -101 -11 -17 -92 -27 -93 -12 0 7 0 47
0 88 -1 120 -37 197 -111 236 -21 11 -34 11 -55 3 -25 -9 -31 -7 -55 22 -34
40 -34 45 -5 60 59 33 123 27 188 -15z m3904 -110 c44 -10 110 -51 129 -80 33
-52 13 -144 -45 -199 -50 -47 -203 -96 -307 -98 -165 -4 -247 86 -207 224 25
87 104 150 206 165 51 7 166 1 224 -12z m1229 -413 c-5 -56 -21 -142 -59 -318
-51 -235 -221 -833 -244 -857 -10 -11 -93 23 -88 36 31 80 150 482 172 576 2
8 14 60 28 115 57 227 93 405 96 483 1 8 16 12 50 11 l49 -2 -4 -44z m224
-218 c35 -15 38 -18 35 -51 -3 -45 22 -94 81 -159 98 -107 146 -199 146 -282
l0 -45 -42 6 c-50 7 -51 8 -55 51 -4 57 -50 130 -140 225 -64 66 -90 143 -85
243 2 31 8 32 60 12z m-2773 -265 l18 -40 -46 -47 c-25 -27 -89 -102 -143
-168 -218 -266 -318 -365 -444 -438 -149 -85 -345 -91 -498 -13 -82 42 -172
116 -332 276 -86 85 -170 165 -188 178 -88 62 -180 105 -294 136 -31 9 -77 25
-102 35 l-44 20 9 42 c6 24 12 45 14 47 1 2 25 -6 52 -17 26 -11 82 -30 123
-41 87 -25 224 -89 284 -132 23 -16 120 -107 217 -202 186 -183 267 -246 353
-276 121 -41 224 -34 341 25 121 61 229 167 450 440 95 117 187 215 203 215 5
0 17 -18 27 -40z m290 -74 c2 -6 6 -38 9 -71 14 -140 53 -262 145 -450 116
-236 194 -465 217 -638 7 -49 7 -43 5 -85 l-1 -33 -47 4 -46 4 -3 55 c-7 143
-89 397 -205 635 -114 235 -151 355 -164 527 l-5 65 46 -1 c25 0 47 -6 49 -12z
m1265 -46 l20 -39 -28 -15 c-123 -63 -358 -85 -567 -52 -26 4 -49 -8 -110 -59
-60 -50 -140 -105 -153 -105 -6 0 -17 19 -27 42 -14 35 -14 43 -2 49 7 5 42
30 77 56 146 111 164 121 212 114 190 -27 392 -15 491 29 59 26 64 25 87 -20z
m-2266 -140 c84 -51 89 -165 10 -244 -69 -69 -232 -108 -301 -72 -36 18 -65
82 -65 139 1 74 78 168 159 194 57 19 154 10 197 -17z m810 -316 l25 -37 -51
-46 c-74 -66 -244 -254 -309 -341 -52 -71 -89 -136 -89 -158 0 -6 -13 -40 -30
-76 -23 -51 -28 -76 -25 -111 l5 -44 -41 -11 c-26 -7 -45 -8 -51 -2 -5 5 -10
38 -10 73 -1 50 4 75 24 114 14 28 33 73 42 102 22 67 73 145 171 261 85 102
291 312 305 312 5 0 20 -16 34 -36z m-4094 -41 c53 -85 150 -177 226 -214 77
-38 173 -47 269 -24 62 14 58 17 79 -52 8 -26 -10 -38 -74 -49 -196 -32 -339
16 -478 158 -51 52 -142 173 -142 189 0 9 62 49 75 48 6 0 26 -25 45 -56z
m5671 -224 c5 -78 9 -72 -57 -90 -85 -22 -147 -54 -296 -153 -87 -58 -150 -92
-198 -107 -39 -12 -122 -48 -186 -79 -121 -60 -119 -60 -147 -4 l-16 30 102
51 c56 28 127 60 157 71 30 11 71 26 90 33 19 8 89 49 154 93 202 134 394 209
397 155z m-1281 -639 l20 -39 -43 -30 c-23 -16 -76 -63 -119 -104 -91 -89
-147 -129 -211 -151 -93 -31 -233 -14 -348 44 l-61 31 28 37 c15 20 28 38 30
40 1 2 18 -6 39 -18 51 -29 139 -51 208 -51 80 -1 129 26 241 131 92 87 171
150 187 150 5 0 18 -18 29 -40z m-399 -653 c91 -122 149 -208 177 -262 23 -46
34 -102 22 -110 -17 -10 -98 33 -105 57 -7 19 -109 183 -125 198 -3 3 -33 41
-66 85 l-61 81 31 27 c17 14 36 26 41 26 6 0 44 -46 86 -102z m937 52 c8 -1
27 -15 44 -31 25 -23 29 -33 23 -56 -9 -37 -32 -58 -84 -75 -47 -15 -121 -13
-155 5 -18 10 -29 12 -74 17 -23 2 -32 44 -14 71 37 60 88 81 177 76 39 -3 76
-6 83 -7z"/>
<path d="M2815 7362 c-69 -33 -91 -64 -86 -123 0 -9 14 -33 30 -53 l29 -36 45
63 c25 35 49 81 53 103 3 21 8 47 10 57 4 24 -11 22 -81 -11z"/>
<path d="M6636 4948 c-53 -11 -93 -42 -106 -84 -15 -44 -6 -80 22 -95 52 -28
236 -1 309 46 46 29 65 77 41 98 -19 15 -45 26 -79 33 -47 9 -150 10 -187 2z"/>
<path d="M4675 3809 c-57 -16 -109 -85 -98 -130 8 -31 19 -38 57 -32 103 14
159 52 171 114 7 37 -68 64 -130 48z"/>
<path d="M1878 7898 c-82 -110 -113 -154 -177 -250 l-32 -48 63 4 c73 5 189
24 205 34 5 4 13 59 17 122 3 63 9 145 12 183 4 37 4 67 1 67 -3 0 -43 -51
-89 -112z"/>
<path d="M1920 7536 c-3 -2 -21 -7 -40 -10 -19 -3 -46 -8 -60 -11 -14 -4 -109
-7 -211 -8 -190 -2 -219 -8 -219 -43 0 -26 72 -94 137 -131 112 -62 205 -86
391 -99 109 -8 101 -26 68 166 -19 117 -25 135 -42 138 -11 2 -22 1 -24 -2z"/>
<path d="M1436 7187 c-47 -100 -106 -229 -106 -232 0 -1 17 -2 38 0 50 2 115
-11 160 -32 31 -15 353 -227 387 -255 6 -5 31 -25 58 -45 26 -19 47 -40 47
-44 0 -5 7 -9 15 -9 8 0 15 4 15 10 0 5 18 50 40 100 l41 90 -26 72 c-23 64
-44 147 -62 253 -3 17 -6 31 -6 31 -1 1 -46 5 -100 9 -53 3 -105 8 -116 10
-10 2 -42 6 -71 10 -61 8 -188 49 -237 76 -19 11 -37 19 -41 19 -4 0 -20 -28
-36 -63z"/>
<path d="M1747 5564 c-1 -1 -58 -5 -127 -8 -199 -10 -209 -12 -367 -87 -82
-38 -155 -73 -163 -78 -9 -5 -30 -12 -47 -15 -29 -7 -32 -12 -41 -59 -14 -82
-7 -381 12 -467 8 -41 18 -86 21 -100 24 -120 77 -255 177 -455 l92 -184 40
62 c90 140 228 281 361 367 l85 55 -6 55 c-3 30 -7 71 -9 90 -24 228 -23 469
1 756 5 61 4 71 -10 71 -9 0 -17 -1 -19 -3z"/>
</g>
</svg>
